<?xml version="1.0" encoding="utf-8"?>
<!-- Generator: Adobe Illustrator 15.0.0, SVG Export Plug-In . SVG Version: 6.00 Build 0)  -->
<!DOCTYPE svg PUBLIC "-//W3C//DTD SVG 1.1//EN" "http://www.w3.org/Graphics/SVG/1.1/DTD/svg11.dtd">
<svg version="1.1" id="Capa_1" xmlns="http://www.w3.org/2000/svg" xmlns:xlink="http://www.w3.org/1999/xlink" x="0px" y="0px"
	 width="256px" height="256px" viewBox="0.445 595.14 256 256" style="enable-background:new 0.445 595.14 256 256;"
	 xml:space="preserve">
<path d="M128.445,595.14c-70.693,0-128,57.307-128,128c0,70.692,57.307,128,128,128c70.692,0,128-57.308,128-128
	C256.445,652.447,199.137,595.14,128.445,595.14z M163.725,673.449h-18.598c-3.051,0-7.34,1.524-7.34,8.016v17.307h25.861
	l-3.023,29.38h-22.84v83.675H103.18v-83.675H86.721v-29.407h16.458v-19.029c0-13.608,6.463-34.917,34.912-34.917l25.633,0.106
	V673.449z"/>
</svg>
