<?xml version="1.0" encoding="utf-8"?>
<!-- Generator: Adobe Illustrator 15.0.0, SVG Export Plug-In . SVG Version: 6.00 Build 0)  -->
<!DOCTYPE svg PUBLIC "-//W3C//DTD SVG 1.1//EN" "http://www.w3.org/Graphics/SVG/1.1/DTD/svg11.dtd">
<svg version="1.1" id="Layer_1" xmlns="http://www.w3.org/2000/svg" xmlns:xlink="http://www.w3.org/1999/xlink" x="0px" y="0px"
	 width="256px" height="256px" viewBox="0.445 595.14 256 256" style="enable-background:new 0.445 595.14 256 256;"
	 xml:space="preserve">
<g>
	<path d="M166.594,663.249H90.295c-12.178,0-22.087,9.908-22.087,22.087v76.299c0,12.18,9.909,22.09,22.087,22.09h76.299
		c12.179,0,22.09-9.908,22.09-22.09v-76.299C188.685,673.157,178.776,663.249,166.594,663.249z M128.445,763.147
		c-21.867,0-39.659-17.792-39.659-39.661c0-21.867,17.792-39.66,39.659-39.66c21.87,0,39.662,17.793,39.662,39.66
		S150.312,763.147,128.445,763.147z M169.381,692.027c-5.176,0-9.386-4.211-9.386-9.384c0-5.174,4.209-9.384,9.386-9.384
		c5.174,0,9.384,4.21,9.384,9.384C178.765,687.816,174.555,692.027,169.381,692.027z"/>
	<path d="M128.445,700.586c-12.624,0-22.903,10.273-22.903,22.896c0,12.629,10.279,22.906,22.903,22.906
		c12.629,0,22.9-10.277,22.9-22.906C151.345,710.862,141.072,700.586,128.445,700.586z"/>
	<path d="M128.445,595.14c-70.689,0-128,57.311-128,128s57.311,128,128,128s128-57.311,128-128S199.135,595.14,128.445,595.14z
		 M205.441,761.635c0,21.423-17.424,38.847-38.846,38.847H90.295c-21.419,0-38.846-17.424-38.846-38.847v-76.299
		c0-21.42,17.426-38.846,38.846-38.846h76.299c21.422,0,38.846,17.426,38.846,38.846V761.635z"/>
</g>
</svg>
