<?xml version="1.0" encoding="utf-8"?>
<!-- Generator: Adobe Illustrator 15.0.0, SVG Export Plug-In . SVG Version: 6.00 Build 0)  -->
<!DOCTYPE svg PUBLIC "-//W3C//DTD SVG 1.1//EN" "http://www.w3.org/Graphics/SVG/1.1/DTD/svg11.dtd" [
	<!ENTITY st0 "fill:none;stroke:#000000;stroke-width:0.4;">
	<!ENTITY st1 "stroke:#000000;stroke-width:0.33;stroke-linecap:round;stroke-linejoin:round;">
]>
<svg version="1.1" id="Layer_1" xmlns="http://www.w3.org/2000/svg" xmlns:xlink="http://www.w3.org/1999/xlink" x="0px" y="0px"
	 width="158px" height="78px" viewBox="0 0 158 78" style="enable-background:new 0 0 158 78;" xml:space="preserve">
<g>
	<path style="&st0;" d="M115.607,67.488c18.637,0,33.744-15.104,33.744-33.735C149.352,15.106,134.245,0,115.607,0H33.752
		C15.106,0,0,15.106,0,33.753c0,18.631,15.106,33.735,33.752,33.735H115.607z"/>
	<path style="&st1;" d="M41.597,36.438c-3.416,5.554-7.369,7.83-13.933,8.346l0,0c-0.762,0-1.453-0.247-2.012-0.691l0,0
		l-4.706-4.665v36.904h0.011c0,0.914-0.736,1.667-1.65,1.667c-0.457,0-0.83-0.136-1.138-0.436v0.001l-7.448-7.474
		c0,0-0.299-0.268-0.576-0.869c-0.206-0.477-0.258-1.327-0.258-1.327l0.001-52.085v-0.817c0-1.839,1.492-3.323,3.322-3.323h0.818
		l12.347-0.039c7.417,0.501,10.239,1.676,15.324,7.772v-4.475c0,0-0.098-1.404,0.974-2.404c1.071-1,2.188-0.855,2.188-0.855H59.52
		c0,0,0.983-0.172,2.144,0.969c1.089,1.072,0.968,2.291,0.968,2.291v4.489l3.584-6.141c0.942-1.666,2.967-1.608,2.967-1.608H91.12
		c0,0,1.2-0.135,2.331,0.984c1.113,1.118,0.939,2.333,0.939,2.333v4.324l3.263-5.643c0,0,0.463-0.824,1.058-1.288
		c0.939-0.767,2.012-0.711,2.012-0.711s9.232,0,14.344,0c4.955,0,5.634,4.803,5.563,5.564c-0.058,0.627-0.303,1.763-0.303,1.763
		l-14.911,25.848l15.214,0.002V14.75c0,0,0-1.288,1.071-2.213c1.232-1.046,2.234-0.868,2.234-0.868h4.389
		c0,0,1.198-0.083,2.186,0.825c1.219,1.123,1.144,2.39,1.144,2.39v29.963h24.646c0,0,0.732-0.139,1.361,0.633
		c0.596,0.698,0.224,1.686,0.224,1.686l-4.017,6.998c0,0-0.228,0.623-1.205,1.319c-0.782,0.565-2.03,0.491-2.03,0.491h-26.51
		c0,0-1.248,0.116-2.268-0.771c-1.372-1.187-1.226-2.46-1.226-2.46v-4.56l-3.506,6.098c0,0-0.375,0.617-1.198,1.231
		c-0.781,0.579-1.727,0.463-1.727,0.463H91.758c0,0-1.462,0.146-2.472-1.446c-1.133-1.761-0.179-3.546-0.179-3.546l16.317-28.28
		l-21.33-0.006v29.961c0,0,0.102,1.291-1.031,2.391c-1.024,1.003-1.896,0.926-1.896,0.926s-3.132,0-4.829,0
		c-0.995,0-1.824-0.463-2.314-0.926c-1.156-1.08-1.001-2.391-1.001-2.391v-29.92H52.823v5.667h14.64c0,0,0.866-0.072,1.372,0.649
		c0.607,0.91,0.142,1.771,0.142,1.771l-3.902,6.756c0,0-0.366,0.625-0.926,1.098c-0.786,0.649-1.773,0.722-1.773,0.722h-9.551
		l-0.015,5.419h14.726c0,0,0.779-0.072,1.321,0.824c0.489,0.824,0.076,1.634,0.076,1.634l-3.962,6.888c0,0-0.471,0.731-1.206,1.193
		c-0.752,0.463-1.865,0.563-1.865,0.563H44.815c0,0-1.419-0.036-2.359-1.071c-0.958-1.035-0.859-2.347-0.859-2.347V36.438z
		 M26.485,33.796c3.048,0,5.527-2.479,5.527-5.527c0-3.067-2.479-5.55-5.527-5.55h-5.54v11.104L26.485,33.796z"/>
	<path d="M136.528,33.868c0-2.236,1.824-3.892,3.964-3.892c2.118,0,3.937,1.656,3.937,3.892c0,2.262-1.819,3.898-3.937,3.898
		C138.352,37.766,136.528,36.13,136.528,33.868z M140.492,37.129c1.758,0,3.15-1.379,3.15-3.261c0-1.843-1.393-3.234-3.15-3.234
		c-1.785,0-3.178,1.391-3.178,3.234C137.314,35.75,138.707,37.129,140.492,37.129z M139.673,36.13h-0.691v-4.498h1.709
		c1.068,0,1.598,0.393,1.598,1.273c0,0.808-0.516,1.156-1.166,1.234l1.269,1.99h-0.76l-1.182-1.952h-0.777V36.13z M140.479,33.599
		c0.586,0,1.096-0.04,1.096-0.729c0-0.56-0.508-0.659-0.973-0.659h-0.929v1.389H140.479z"/>
</g>
</svg>
