<?xml version="1.0" encoding="utf-8"?>
<!-- Generator: Adobe Illustrator 15.0.0, SVG Export Plug-In . SVG Version: 6.00 Build 0)  -->
<!DOCTYPE svg PUBLIC "-//W3C//DTD SVG 1.1//EN" "http://www.w3.org/Graphics/SVG/1.1/DTD/svg11.dtd" [
	<!ENTITY st0 "fill:#1D1D1B;">
]>
<svg version="1.1" id="Layer_1" xmlns="http://www.w3.org/2000/svg" xmlns:xlink="http://www.w3.org/1999/xlink" x="0px" y="0px"
	 width="191px" height="33px" viewBox="0 0 191 33" style="enable-background:new 0 0 191 33;" xml:space="preserve">
<g>
	<g>
		<path style="&st0;" d="M61.283,15.116c0,0.973-0.761,1.758-2.281,2.367c-1.519,0.601-3.578,0.904-6.185,0.904
			c-1.507,0-2.818-0.072-3.938-0.214c-1.119-0.138-2.166-0.321-3.147-0.537v-2.351h0.516c0.966,0.417,2.053,0.741,3.253,0.967
			c1.202,0.224,2.351,0.336,3.462,0.336c0.28,0,0.656-0.011,1.119-0.041c0.465-0.025,0.844-0.068,1.137-0.137
			c0.358-0.07,0.652-0.173,0.888-0.296c0.229-0.123,0.343-0.302,0.343-0.541c0-0.212-0.165-0.398-0.502-0.556
			c-0.341-0.16-0.833-0.281-1.486-0.36c-0.68-0.083-1.405-0.168-2.166-0.246c-0.759-0.082-1.474-0.181-2.138-0.303
			c-1.533-0.264-2.636-0.629-3.307-1.092c-0.672-0.462-1.006-1.036-1.006-1.718c0-0.916,0.761-1.667,2.277-2.25
			c1.519-0.582,3.469-0.871,5.856-0.871c1.196,0,2.374,0.065,3.547,0.192c1.165,0.122,2.179,0.285,3.029,0.474v2.257h-0.501
			c-0.729-0.323-1.628-0.586-2.688-0.804c-1.06-0.212-2.146-0.324-3.249-0.324c-0.391,0-0.778,0.013-1.166,0.043
			c-0.388,0.03-0.758,0.09-1.116,0.172c-0.32,0.061-0.593,0.163-0.818,0.299c-0.229,0.141-0.342,0.299-0.342,0.474
			c0,0.26,0.183,0.458,0.55,0.597c0.366,0.142,1.058,0.264,2.076,0.382c0.668,0.077,1.306,0.15,1.918,0.218
			c0.615,0.067,1.279,0.17,1.984,0.293c1.392,0.244,2.418,0.581,3.083,1.007C60.95,13.887,61.283,14.44,61.283,15.116L61.283,15.116
			z M61.283,15.116"/>
		<path style="&st0;" d="M88.283,18.186h-4.688v-4.322H76.67v4.322h-4.691V8.379h4.691v3.589h6.924V8.379h4.688V18.186
			L88.283,18.186z M88.283,18.186"/>
		<path style="&st0;" d="M113.576,18.186h-13.149V8.379h13.149v1.89h-8.462v1.7h7.843v1.896h-7.843v2.428h8.462V18.186
			L113.576,18.186z M113.576,18.186"/>
		<path style="&st0;" d="M138.13,18.186h-13.112V8.379h4.685v7.913h8.427V18.186L138.13,18.186z M138.13,18.186"/>
		<path style="&st0;" d="M164.028,15.176c0,0.479-0.179,0.909-0.533,1.282c-0.356,0.375-0.842,0.683-1.458,0.927
			c-0.721,0.292-1.509,0.501-2.369,0.617c-0.86,0.126-1.952,0.183-3.271,0.183h-7.943V8.379h7.071c1.467,0,2.537,0.02,3.221,0.077
			c0.68,0.051,1.355,0.165,2.028,0.344c0.689,0.191,1.205,0.441,1.544,0.765c0.336,0.317,0.509,0.68,0.509,1.086
			c0,0.473-0.235,0.889-0.695,1.251c-0.463,0.364-1.121,0.646-1.967,0.848v0.062c1.185,0.125,2.122,0.388,2.821,0.788
			C163.679,13.999,164.028,14.525,164.028,15.176 M158.025,11.137c0-0.163-0.071-0.329-0.226-0.494
			c-0.151-0.161-0.417-0.285-0.797-0.359c-0.339-0.07-0.77-0.109-1.281-0.118c-0.503-0.008-1.217-0.012-2.136-0.012h-0.443v2.09
			h0.733c0.741,0,1.375-0.003,1.893-0.021c0.52-0.013,0.933-0.059,1.234-0.131c0.421-0.097,0.704-0.229,0.831-0.395
			C157.96,11.54,158.025,11.347,158.025,11.137 M159.14,15.154c0-0.309-0.106-0.557-0.331-0.728c-0.224-0.168-0.602-0.3-1.13-0.385
			c-0.369-0.061-0.876-0.088-1.507-0.093c-0.643,0-1.311-0.004-2.008-0.004h-1.021v2.466h0.339c1.313,0,2.253,0,2.819-0.004
			c0.566-0.003,1.091-0.062,1.567-0.178c0.49-0.11,0.823-0.259,1.005-0.441C159.05,15.605,159.14,15.396,159.14,15.154
			L159.14,15.154z M159.14,15.154"/>
		<path style="&st0;" d="M191,8.379l-6.699,6.02v3.787h-4.688v-3.669L172.8,8.379h5.286l3.946,3.818l3.814-3.818H191L191,8.379z
			 M191,8.379"/>
	</g>
	<g>
		<path style="&st0;" d="M18.941,7.477c0.211-0.134,0.094-0.455-0.009-0.688c-1.769-0.531-3.684,0.289-5.31,0.956
			c-1.561,0.642-3.239,1.459-4.529,2.561c-1.475,1.256-3.109,3.052-3.321,5.052c-0.056,0.528-0.228,1.099-0.202,1.62
			c0.023,0.517,0.204,1.061,0.259,1.594c0.13,1.286,0.012,2.364,0.535,3.488c1.419,3.051,4.363,5.254,7.632,5.897
			c0.486,0.097,0.87,0.249,1.374,0.27c0.49,0.021,0.984-0.027,1.476,0c1.229,0.064,2.407,0.251,3.611,0.014
			c1.664-0.332,3.015-0.784,4.286-1.962c1.074-0.99,2.036-2.344,3.027-3.519c1.177-1.399,1.664-3.072,1.92-4.827
			c0.152-1.029,0.231-2.004,0.095-3.022c-0.075-0.584-0.271-1.068-0.405-1.639c-0.132-0.561-0.34-0.738-0.67-1.17
			c-1.121-1.462-2.605-3.612-4.772-3.606c-0.478,0.001-0.95,0.078-1.389,0.109c-0.667,0.051-1.289-0.187-1.941-0.163
			c-0.983,0.034-1.899,0.586-2.703,1.12c-0.314,0.209-1.064,0.638-0.901,1.078c0.155,0.422,0.832,0.472,1.188,0.434
			c0.739-0.083,1.294-0.703,1.983-0.971c1.914-0.749,4.145,0.242,5.376,1.662c0.579,0.671,1.297,1.253,1.505,2.144
			c0.221,0.957,0.16,2.066,0.164,3.053c0.002,1.177-0.357,2.104-0.768,3.163c-0.406,1.041-1.075,1.444-1.825,2.257
			c-0.615,0.667-1.296,1.187-1.925,1.774c-0.687,0.638-1.408,1.238-2.319,1.537c-0.855,0.28-1.857,0.401-2.743,0.485
			c-1.04,0.1-1.934-0.184-2.891-0.415c-0.522-0.127-0.886-0.266-1.341-0.55c-0.496-0.308-1.066-0.473-1.549-0.804
			c-0.316-0.215-0.619-0.455-0.967-0.646c-0.625-0.343-0.725-0.593-1.129-1.167c-1.21-1.718-2.352-3.583-1.895-5.79
			c0.195-0.944,0.559-1.731,0.957-2.596c0.238-0.525,0.643-0.852,0.968-1.317c0.27-0.385,0.457-0.737,0.808-1.086
			c1.125-1.122,2.37-2.301,3.84-2.924c0.669-0.281,1.347-0.646,2.026-0.923C17.132,7.688,18.472,7.937,18.941,7.477"/>
		<path style="&st0;" d="M18.66,2.544c0,1.406-0.339,2.546-0.756,2.546c-0.417,0-0.757-1.141-0.757-2.546S17.487,0,17.904,0
			C18.321,0,18.66,1.138,18.66,2.544L18.66,2.544z M18.66,2.544"/>
		<path style="&st0;" d="M27.877,5.26c-0.539,1.149-1.229,1.965-1.544,1.819c-0.314-0.145-0.131-1.199,0.407-2.35
			c0.537-1.153,1.229-1.966,1.542-1.821C28.599,3.055,28.416,4.107,27.877,5.26L27.877,5.26z M27.877,5.26"/>
		<path style="&st0;" d="M7.257,29.27c-0.994,0.991-2.036,1.558-2.326,1.269c-0.291-0.29,0.278-1.33,1.273-2.32
			c0.991-0.989,2.033-1.559,2.323-1.269C8.82,27.241,8.25,28.279,7.257,29.27L7.257,29.27z M7.257,29.27"/>
		<path style="&st0;" d="M33.523,13.136c-1.319,0.353-2.461,0.372-2.55,0.042c-0.089-0.331,0.912-0.885,2.23-1.238
			c1.32-0.351,2.462-0.372,2.552-0.041C35.844,12.229,34.847,12.783,33.523,13.136L33.523,13.136z M33.523,13.136"/>
		<path style="&st0;" d="M32.629,21.146c-1.256-0.219-2.218-0.704-2.149-1.08c0.066-0.377,1.136-0.505,2.389-0.282
			c1.256,0.221,2.217,0.704,2.153,1.079C34.955,21.24,33.884,21.369,32.629,21.146L32.629,21.146z M32.629,21.146"/>
		<path style="&st0;" d="M27.938,28.398c-0.987-0.981-1.569-1.994-1.303-2.262c0.264-0.264,1.279,0.317,2.266,1.301
			c0.984,0.983,1.57,1.995,1.304,2.261C29.937,29.964,28.923,29.383,27.938,28.398L27.938,28.398z M27.938,28.398"/>
		<path style="&st0;" d="M18.54,31.083c0,1.058-0.301,1.917-0.673,1.917c-0.37,0-0.673-0.859-0.673-1.917
			c0-1.06,0.303-1.918,0.673-1.918C18.239,29.165,18.54,30.024,18.54,31.083L18.54,31.083z M18.54,31.083"/>
		<path style="&st0;" d="M2.503,21.531c-1.291,0.347-2.408,0.356-2.498,0.025s0.886-0.88,2.174-1.224
			c1.291-0.345,2.408-0.356,2.498-0.026C4.767,20.64,3.793,21.187,2.503,21.531L2.503,21.531z M2.503,21.531"/>
		<path style="&st0;" d="M3.137,11.644C1.969,10.831,1.201,9.92,1.418,9.608c0.219-0.31,1.341,0.1,2.505,0.914
			c1.167,0.815,1.936,1.727,1.717,2.036C5.423,12.868,4.301,12.46,3.137,11.644L3.137,11.644z M3.137,11.644"/>
		<path style="&st0;" d="M9.209,5.282C8.56,4.162,8.305,3.096,8.64,2.904c0.333-0.192,1.13,0.559,1.779,1.68
			c0.648,1.121,0.903,2.186,0.57,2.379C10.654,7.155,9.858,6.403,9.209,5.282L9.209,5.282z M9.209,5.282"/>
		<path style="&st0;" d="M22.55,4.703c-0.118,0.667-0.417,1.171-0.668,1.129c-0.252-0.045-0.359-0.623-0.241-1.289
			c0.118-0.668,0.418-1.174,0.667-1.129C22.559,3.457,22.667,4.034,22.55,4.703L22.55,4.703z M22.55,4.703"/>
		<path style="&st0;" d="M12.677,30.165c-0.255,0.627-0.674,1.053-0.938,0.944c-0.264-0.105-0.271-0.7-0.016-1.329
			c0.253-0.629,0.675-1.051,0.939-0.946C12.925,28.94,12.932,29.536,12.677,30.165L12.677,30.165z M12.677,30.165"/>
		<path style="&st0;" d="M32.436,17.045c-0.675,0.06-1.244-0.098-1.267-0.353c-0.021-0.252,0.51-0.505,1.187-0.565
			c0.676-0.058,1.243,0.099,1.266,0.353C33.643,16.732,33.113,16.986,32.436,17.045L32.436,17.045z M32.436,17.045"/>
		<path style="&st0;" d="M30.167,24.501c-0.589-0.337-0.963-0.791-0.834-1.012c0.127-0.22,0.707-0.125,1.295,0.215
			c0.589,0.338,0.962,0.792,0.834,1.013C31.334,24.936,30.754,24.84,30.167,24.501L30.167,24.501z M30.167,24.501"/>
		<path style="&st0;" d="M22.715,30.126c-0.25-0.676-0.21-1.313,0.084-1.421c0.298-0.108,0.737,0.354,0.985,1.034
			c0.248,0.676,0.208,1.313-0.088,1.422C23.4,31.267,22.959,30.804,22.715,30.126L22.715,30.126z M22.715,30.126"/>
		<path style="&st0;" d="M30.281,8.766c-0.455,0.503-0.978,0.774-1.167,0.604c-0.188-0.17,0.025-0.717,0.479-1.221
			c0.455-0.504,0.978-0.774,1.168-0.604C30.949,7.715,30.735,8.261,30.281,8.766L30.281,8.766z M30.281,8.766"/>
		<path style="&st0;" d="M5.019,25.295c-0.536,0.417-1.122,0.562-1.31,0.321c-0.188-0.24,0.094-0.771,0.629-1.189
			c0.535-0.418,1.122-0.564,1.31-0.321C5.835,24.346,5.554,24.876,5.019,25.295L5.019,25.295z M5.019,25.295"/>
		<path style="&st0;" d="M2.559,16.763c-0.733-0.065-1.309-0.35-1.283-0.639c0.024-0.286,0.641-0.467,1.375-0.403
			c0.734,0.065,1.31,0.351,1.285,0.638C3.91,16.646,3.293,16.828,2.559,16.763L2.559,16.763z M2.559,16.763"/>
		<path style="&st0;" d="M6.286,8.649C5.771,8.216,5.499,7.692,5.682,7.473c0.182-0.214,0.748-0.041,1.263,0.394
			C7.461,8.297,7.733,8.823,7.551,9.04C7.37,9.254,6.802,9.082,6.286,8.649L6.286,8.649z M6.286,8.649"/>
		<path style="&st0;" d="M13.357,4.626c-0.23-0.637-0.225-1.222,0.013-1.311c0.24-0.086,0.623,0.358,0.856,0.996
			c0.231,0.637,0.226,1.223-0.015,1.311C13.973,5.708,13.591,5.263,13.357,4.626L13.357,4.626z M13.357,4.626"/>
	</g>
	<g>
		<path d="M49.354,23.611h0.733v3.192c0,0.555-0.063,0.997-0.189,1.321c-0.125,0.329-0.354,0.595-0.681,0.799
			c-0.33,0.204-0.76,0.306-1.294,0.306c-0.52,0-0.943-0.087-1.273-0.268c-0.329-0.178-0.565-0.434-0.705-0.774
			c-0.142-0.338-0.213-0.799-0.213-1.384v-3.192h0.733v3.188c0,0.479,0.045,0.833,0.135,1.06c0.089,0.229,0.242,0.405,0.461,0.527
			c0.217,0.122,0.483,0.185,0.798,0.185c0.539,0,0.923-0.121,1.153-0.366c0.229-0.242,0.343-0.713,0.343-1.405V23.611z"/>
		<path d="M51.278,29.135v-5.524h0.733v4.872h2.727v0.652H51.278z"/>
		<path d="M55.58,29.135v-5.524h0.733v2.738l2.749-2.738h0.995l-2.323,2.238l2.425,3.286h-0.966l-1.972-2.796l-0.907,0.883v1.914
			H55.58z"/>
		<path d="M60.547,26.444c0-0.918,0.248-1.635,0.741-2.153c0.493-0.518,1.13-0.778,1.912-0.778c0.51,0,0.971,0.121,1.381,0.365
			c0.411,0.243,0.724,0.583,0.94,1.021c0.215,0.434,0.322,0.93,0.322,1.482c0,0.561-0.113,1.062-0.341,1.504
			c-0.226,0.441-0.548,0.776-0.962,1.003c-0.415,0.229-0.863,0.341-1.344,0.341c-0.522,0-0.989-0.125-1.398-0.376
			c-0.412-0.251-0.722-0.593-0.933-1.029C60.652,27.388,60.547,26.928,60.547,26.444z M61.302,26.455c0,0.665,0.18,1.19,0.539,1.573
			c0.359,0.383,0.81,0.575,1.352,0.575c0.549,0,1.003-0.193,1.361-0.581c0.356-0.386,0.535-0.936,0.535-1.646
			c0-0.449-0.076-0.843-0.229-1.176c-0.151-0.336-0.375-0.598-0.668-0.782s-0.622-0.277-0.986-0.277
			c-0.52,0-0.966,0.178-1.341,0.534C61.489,25.031,61.302,25.625,61.302,26.455z"/>
		<path d="M66.911,29.135v-5.524h0.733v5.524H66.911z"/>
		<path d="M68.907,29.135v-5.524h0.732v4.872h2.727v0.652H68.907z"/>
		<path d="M76.873,23.611h0.733v3.192c0,0.555-0.064,0.997-0.189,1.321c-0.125,0.329-0.354,0.595-0.681,0.799
			c-0.33,0.204-0.76,0.306-1.294,0.306c-0.52,0-0.943-0.087-1.273-0.268c-0.329-0.178-0.565-0.434-0.706-0.774
			c-0.142-0.338-0.213-0.799-0.213-1.384v-3.192h0.733v3.188c0,0.479,0.046,0.833,0.135,1.06c0.089,0.229,0.242,0.405,0.461,0.527
			c0.217,0.122,0.483,0.185,0.798,0.185c0.539,0,0.923-0.121,1.153-0.366c0.228-0.242,0.342-0.713,0.342-1.405V23.611z"/>
		<path d="M78.804,29.135v-5.524h1.104l1.311,3.911c0.12,0.365,0.209,0.637,0.265,0.819c0.062-0.203,0.16-0.497,0.294-0.887
			l1.325-3.843h0.987v5.524h-0.707V24.51l-1.609,4.625h-0.661l-1.601-4.702v4.702H78.804z"/>
		<path d="M84.663,29.135l2.127-5.524h0.789l2.266,5.524h-0.835l-0.646-1.673h-2.314l-0.609,1.673H84.663z M86.26,26.868h1.877
			l-0.578-1.532c-0.176-0.464-0.307-0.847-0.393-1.145c-0.071,0.354-0.17,0.707-0.3,1.054L86.26,26.868z"/>
		<path d="M91.266,29.135v-4.872H89.44v-0.652h4.39v0.652h-1.833v4.872H91.266z"/>
		<path d="M94.597,29.135v-5.524h4.004v0.652h-3.272v1.692h3.064v0.649h-3.064v1.879h3.401v0.652H94.597z"/>
		<path d="M99.753,29.135v-5.524h2.455c0.494,0,0.869,0.049,1.126,0.148c0.257,0.099,0.461,0.274,0.616,0.526
			c0.152,0.252,0.23,0.53,0.23,0.833c0,0.391-0.127,0.723-0.382,0.992c-0.256,0.269-0.648,0.438-1.18,0.511
			c0.194,0.093,0.342,0.185,0.443,0.275c0.213,0.195,0.417,0.442,0.609,0.735l0.962,1.503h-0.922l-0.732-1.148
			c-0.215-0.333-0.391-0.587-0.528-0.761c-0.139-0.176-0.262-0.301-0.372-0.369c-0.111-0.071-0.222-0.121-0.335-0.148
			c-0.083-0.017-0.218-0.026-0.408-0.026h-0.851v2.453H99.753z M100.485,26.048h1.576c0.335,0,0.598-0.033,0.786-0.104
			c0.19-0.069,0.332-0.179,0.43-0.332c0.098-0.151,0.147-0.316,0.147-0.495c0-0.262-0.095-0.476-0.284-0.645
			c-0.192-0.168-0.492-0.252-0.902-0.252h-1.753V26.048z"/>
		<path d="M105.455,29.135v-5.524h0.732v5.524H105.455z"/>
		<path d="M106.87,29.135l2.127-5.524h0.79l2.266,5.524h-0.833l-0.646-1.673h-2.316l-0.609,1.673H106.87z M108.468,26.868h1.877
			l-0.578-1.532c-0.176-0.464-0.308-0.847-0.392-1.145c-0.073,0.354-0.17,0.707-0.298,1.054L108.468,26.868z"/>
		<path d="M112.03,29.135l2.126-5.524h0.792l2.265,5.524h-0.834l-0.646-1.673h-2.316l-0.605,1.673H112.03z M113.627,26.868h1.878
			l-0.579-1.532c-0.176-0.464-0.306-0.847-0.392-1.145c-0.07,0.354-0.17,0.707-0.298,1.054L113.627,26.868z"/>
		<path d="M117.769,29.135v-5.524h0.733v4.872h2.727v0.652H117.769z"/>
		<path d="M122.227,29.135v-5.524h0.731v5.524H122.227z"/>
		<path d="M125.659,29.135v-4.872h-1.824v-0.652h4.389v0.652h-1.832v4.872H125.659z"/>
		<path d="M130.61,27.567l0.662-0.09c0.018,0.423,0.096,0.711,0.237,0.868c0.141,0.155,0.337,0.233,0.586,0.233
			c0.182,0,0.343-0.041,0.478-0.126c0.131-0.085,0.224-0.198,0.272-0.343c0.051-0.145,0.077-0.376,0.077-0.691v-3.807h0.733v3.764
			c0,0.462-0.056,0.821-0.168,1.075c-0.112,0.255-0.29,0.448-0.531,0.58c-0.245,0.133-0.529,0.199-0.856,0.199
			c-0.488,0-0.86-0.138-1.117-0.417C130.726,28.533,130.599,28.118,130.61,27.567z"/>
		<path d="M134.245,29.135l2.126-5.524h0.792l2.265,5.524h-0.835l-0.646-1.673h-2.316l-0.605,1.673H134.245z M135.844,26.868h1.877
			l-0.58-1.532c-0.174-0.464-0.306-0.847-0.392-1.145c-0.071,0.354-0.171,0.707-0.298,1.054L135.844,26.868z"/>
		<path d="M141.385,27.477v-0.682h2.088v0.682H141.385z"/>
		<path d="M145.895,29.135l-2.146-5.524h0.793l1.438,4.013c0.118,0.32,0.214,0.624,0.29,0.905c0.086-0.303,0.186-0.604,0.3-0.905
			l1.497-4.013h0.748l-2.171,5.524H145.895z"/>
		<path d="M148.289,29.135l2.128-5.524h0.788l2.269,5.524h-0.835l-0.646-1.673h-2.316l-0.609,1.673H148.289z M149.888,26.868h1.877
			l-0.578-1.532c-0.178-0.464-0.308-0.847-0.392-1.145c-0.072,0.354-0.17,0.707-0.298,1.054L149.888,26.868z"/>
		<path d="M154.069,29.135v-5.524h2.455c0.494,0,0.87,0.049,1.125,0.148c0.259,0.099,0.462,0.274,0.617,0.526
			c0.153,0.252,0.229,0.53,0.229,0.833c0,0.391-0.127,0.723-0.38,0.992c-0.254,0.269-0.648,0.438-1.177,0.511
			c0.192,0.093,0.339,0.185,0.439,0.275c0.215,0.195,0.417,0.442,0.609,0.735l0.964,1.503h-0.923l-0.731-1.148
			c-0.217-0.333-0.392-0.587-0.529-0.761c-0.141-0.176-0.263-0.301-0.373-0.369c-0.109-0.071-0.221-0.121-0.335-0.148
			c-0.084-0.017-0.219-0.026-0.407-0.026h-0.851v2.453H154.069z M154.802,26.048h1.575c0.333,0,0.598-0.033,0.786-0.104
			c0.188-0.069,0.333-0.179,0.431-0.332c0.098-0.151,0.147-0.316,0.147-0.495c0-0.262-0.096-0.476-0.286-0.645
			c-0.19-0.168-0.49-0.252-0.899-0.252h-1.753V26.048z"/>
		<path d="M163.28,23.611h0.733v3.192c0,0.555-0.065,0.997-0.19,1.321c-0.127,0.329-0.353,0.595-0.682,0.799
			c-0.327,0.204-0.762,0.306-1.295,0.306c-0.518,0-0.945-0.087-1.272-0.268c-0.331-0.178-0.566-0.434-0.707-0.774
			c-0.139-0.338-0.21-0.799-0.21-1.384v-3.192h0.733v3.188c0,0.479,0.041,0.833,0.133,1.06c0.088,0.229,0.243,0.405,0.46,0.527
			c0.218,0.122,0.484,0.185,0.799,0.185c0.538,0,0.923-0.121,1.152-0.366c0.229-0.242,0.345-0.713,0.345-1.405V23.611z"/>
		<path d="M164.982,27.36l0.689-0.061c0.033,0.275,0.11,0.504,0.229,0.681c0.119,0.177,0.304,0.32,0.558,0.429
			c0.251,0.11,0.535,0.164,0.851,0.164c0.278,0,0.525-0.041,0.739-0.124c0.213-0.083,0.372-0.196,0.478-0.341
			c0.104-0.145,0.159-0.302,0.159-0.473c0-0.174-0.053-0.325-0.153-0.455c-0.102-0.129-0.269-0.238-0.498-0.325
			c-0.151-0.059-0.479-0.149-0.988-0.27c-0.507-0.124-0.864-0.238-1.068-0.345c-0.265-0.137-0.462-0.309-0.592-0.514
			c-0.129-0.207-0.194-0.435-0.194-0.689c0-0.278,0.079-0.541,0.237-0.781c0.161-0.245,0.39-0.428,0.695-0.553
			c0.306-0.127,0.643-0.188,1.017-0.188c0.409,0,0.77,0.064,1.085,0.197c0.313,0.131,0.554,0.325,0.725,0.582
			c0.167,0.257,0.257,0.546,0.269,0.87l-0.702,0.053c-0.036-0.35-0.167-0.614-0.382-0.79c-0.22-0.18-0.541-0.268-0.964-0.268
			c-0.445,0-0.77,0.08-0.972,0.241c-0.202,0.163-0.302,0.358-0.302,0.588c0,0.197,0.07,0.359,0.213,0.488
			c0.141,0.128,0.509,0.26,1.105,0.394c0.594,0.136,1.003,0.253,1.227,0.354c0.321,0.146,0.559,0.334,0.713,0.563
			c0.153,0.227,0.231,0.489,0.231,0.786c0,0.295-0.086,0.572-0.252,0.831c-0.17,0.26-0.414,0.461-0.727,0.608
			c-0.319,0.143-0.672,0.215-1.068,0.215c-0.501,0-0.923-0.072-1.26-0.217c-0.341-0.146-0.605-0.366-0.797-0.658
			C165.094,28.062,164.992,27.729,164.982,27.36z"/>
		<path d="M171.801,29.135v-4.872h-1.824v-0.652h4.389v0.652h-1.832v4.872H171.801z"/>
		<path d="M175.131,29.135v-5.524h4.005v0.652h-3.27v1.692h3.063v0.649h-3.063v1.879h3.397v0.652H175.131z"/>
		<path d="M180.292,29.135v-5.524h4.002v0.652h-3.27v1.692h3.064v0.649h-3.064v1.879h3.401v0.652H180.292z"/>
		<path d="M186.844,29.135v-4.872h-1.822v-0.652h4.389v0.652h-1.832v4.872H186.844z"/>
	</g>
</g>
</svg>
