<?xml version="1.0" encoding="utf-8"?>
<!-- Generator: Adobe Illustrator 15.0.0, SVG Export Plug-In . SVG Version: 6.00 Build 0)  -->
<!DOCTYPE svg PUBLIC "-//W3C//DTD SVG 1.1//EN" "http://www.w3.org/Graphics/SVG/1.1/DTD/svg11.dtd" [
	<!ENTITY st0 "fill-rule:evenodd;clip-rule:evenodd;fill:#231F20;">
]>
<svg version="1.1" id="Layer_1" xmlns="http://www.w3.org/2000/svg" xmlns:xlink="http://www.w3.org/1999/xlink" x="0px" y="0px"
	 width="256px" height="247px" viewBox="0 0 256 247" style="enable-background:new 0 0 256 247;" xml:space="preserve">
<path style="&st0;" d="M110.086,1.136l3.107,19.958l2.487-0.201l-0.95-8.807c0,0,2-0.394,3.003-0.801
	c2.892-1.173,4.1-6.244,1.772-8.86c-0.915-1.029-3.398-1.71-5.084-1.679C112.84,0.776,110.086,1.136,110.086,1.136 M115.232,9.7
	c-0.258,0.039-0.844,0.118-1.045,0c-0.124-0.073-0.014-0.939,0-1.791c0.042-2.597-1.822-5.168,0.224-4.925
	c1.643,0.196,2.333,0.554,2.948,1.679c0.573,1.048,0.664,2.711-0.187,3.917C116.867,9.016,115.907,9.599,115.232,9.7
	 M139.96,233.585c0.048,0.283-0.142,1.254-0.146,1.284c-0.071,0.57-0.045,1.086-0.065,1.743c-0.057,1.862-1.261,9.585-1.261,9.585
	l2.745-0.418c0,0,0.436-2.162,0.634-3.248c0.06-0.326,0.562-1.14,0.737-1.194c0.813-0.253,4.008-0.54,4.008-0.54l1.485,4.453
	c0,0,2.236-0.599,2.832-0.816c0.127-0.046,0.179-0.075,0.202-0.137c0.067-0.18-0.66-1.698-1.303-2.88
	c-0.857-1.575-2.871-6.417-4.201-10.104c-0.978-2.71-2.333-6.328-2.333-6.328l-2.407,0.587l-0.884,7.313
	C139.942,233.385,139.938,233.455,139.96,233.585 M145.816,238.189c0.036,0.128-0.206,0.352-0.47,0.493
	c-0.59,0.316-2.378,0.569-2.862,0.466c-0.206-0.043-0.4-0.238-0.497-0.496c-0.145-0.388,0.415-7.524,0.615-7.843
	c0.138-0.22,0.256-0.297,0.43-0.242C143.246,230.637,145.26,236.238,145.816,238.189 M105.355,224.039l-4.446,19.791
	c0,0,1.225,0.259,1.897,0.355c0.428,0.062,0.792,0.08,0.978-0.428c0.043-0.118,0.059-0.187,0.154-0.681l2.009-10.466
	c0.095-0.495,0.113-0.551,0.18-0.559c0.188-0.021,0.251,0.051,0.317,0.195c0.295,0.647,0.667,3.197,1.212,5.876
	c0.654,3.212,1.822,7.191,1.822,7.191l2.696,0.546l2.385-20.206l-2.095-0.633l-2.083,13.479c0,0-0.768-2.869-1.42-5.787
	c-0.896-4.01-1.574-8.113-1.574-8.113s-0.832-0.387-1.571-0.51C105.582,224.051,105.355,224.039,105.355,224.039 M101.28,223.087
	c0,0-1.247-0.419-1.87-0.541c-0.206-0.04-0.344-0.048-0.515-0.029c-0.231,0.026-0.273,0.082-0.417,0.565l-5.631,18.867l3.23,0.768
	L101.28,223.087z M155.231,224.785h1.31c0,0,0.009-0.239,0-0.448c-0.06-1.398-1.161-1.926-2.202-1.791
	c-2.264,0.294-3.538,1.314-4.235,3.171c-0.995,2.648,1.09,5.49,3.386,7.814c2.644,2.676,6.49,5.802,3.144,7.855
	c-0.464,0.285-1.4,0.597-1.679,0.56c-0.508-0.068-1.296-0.589-1.866-0.747c-0.354-0.097-0.345,0.016-0.28,0.448
	c0.099,0.657,0.179,2.513,0.933,2.35c0.083-0.018,0.165-0.068,0.26-0.102c0.347-0.123,0.904-0.013,1.411-0.009
	c0.85,0.006,2.947-0.668,3.553-1.101c1.123-0.801,2.06-2.74,1.866-4.123c-0.079-0.561-0.355-1.219-0.613-1.8
	c-0.204-0.462-0.265-0.554-0.606-0.925c-0.478-0.517-6.542-6.399-6.99-8.804c-0.195-1.044,0.381-1.972,1.596-2.248
	C154.626,224.795,154.728,224.785,155.231,224.785 M165.607,240.963c2.455-0.226,3.519-0.358,5.114-2
	c1.144-1.179,1.594-3.031,0.84-4.664c-0.647-1.402-3.423-3.941-4.241-4.617c-1.635-1.348-4.058-2.989-4.726-5.238
	c-0.441-1.483,0.758-2.32,2.157-2.55c0.61-0.101,1.593-0.18,1.593-0.18s-0.5-1.313-0.847-1.779
	c-0.784-1.054-3.486,0.258-4.105,0.746c-2.216,1.751-1.857,4.994-0.241,7.059c0.93,1.188,7.124,6.825,7.561,7.523
	c0.789,1.258,0.347,2.655-1.163,3.233c-1.428,0.546-1.455,0.318-2.892-0.094c-0.425-0.122-0.415,0.133-0.28,0.896
	c0.032,0.183,0.195,1.372,0.597,1.662C165.042,241.008,165.105,241.009,165.607,240.963 M77.991,236.817
	c0,0,3.406,1.472,4.851,1.865c2.625,0.713,5.531,0.127,7.02-2.315c0.454-0.744,1.009-2.81,0.816-3.785
	c-0.088-0.448-0.521-1.373-0.884-1.796c-0.643-0.75-1.405-1.227-0.794-1.618c0.318-0.204,1.023-0.295,1.493-0.466
	c0.908-0.331,1.966-1.569,2.238-2.332c1.04-2.907-0.082-5.529-2.798-6.809c-0.703-0.332-1.296-0.374-2.426-0.933
	c-0.568-0.281-1.271-0.693-1.271-0.693L77.991,236.817z M90.025,222.733c0.85,1.396,0.4,2.606-0.56,3.917
	c-0.814,1.113-2.203,1.481-3.452,0.84c-0.218-0.112-0.324-0.215-0.374-0.392c-0.07-0.253,1.801-5.036,2.146-5.484
	c0.307-0.4,0.751-0.221,1.399,0.28C89.515,222.147,89.871,222.479,90.025,222.733 M87.6,231.687
	c0.576,1.281,0.105,2.497-0.807,3.684c-0.4,0.52-0.929,1.016-1.276,1.167c-0.559,0.242-3.019,0.185-3.422-0.497
	c-0.262-0.442,0.245-1.063,0.653-1.929c0.701-1.484,1.375-4.09,1.679-4.477c0.482-0.614,1.902,0.199,2.612,1.119
	C87.252,231.029,87.488,231.439,87.6,231.687 M71.626,217.697c0,0,0.063,0.878,0.074,1.688c0.05,4.093-1.459,6.611,0.01,5.773
	c1.216-0.694,6.143-4.595,6.143-4.595s-0.254,0.624-0.516,1.236c-0.789,1.845-5.588,10.354-6.332,11.669
	c-0.068,0.12,0.097,0.458,0.268,0.55c0.653,0.348,2.411,0.943,2.411,0.943l8.54-17.621c0.22-0.454,0.246-0.515,0.257-0.616
	c0.008-0.075,0.017-0.147-0.013-0.224c-0.07-0.187-1.371-0.945-1.791-1.044c-0.149-0.035-0.232-0.03-0.336,0
	c-0.397,0.113-4.256,3.231-4.963,4.011c-0.428,0.472-1.213,1.395-1.492,1.212c-0.092-0.06-0.114-0.25-0.125-0.466
	c-0.114-2.472,1.373-7.02,0.775-7.87c-0.171-0.244-0.97-0.711-1.553-0.908c-0.101-0.034-0.203-0.066-0.309-0.074
	c-0.143-0.009-0.188,0.037-0.455,0.465l-10.597,16.997l2.618,1.463L71.626,217.697z M54.687,224.372l2.75,1.876
	c0,0,11.625-16.749,11.598-17.04c-0.016-0.174-0.771-0.961-1.999-1.53c-0.138-0.063-0.222-0.08-0.314-0.056
	c-0.216,0.056-1.456,1.844-2.537,3.637C63.037,213.162,54.687,224.372,54.687,224.372 M58.68,201.28l-2.717,3.21
	c-0.326,0.384-0.403,0.465-0.777,0.805c-0.412,0.376-0.772,0.817-1.115,1.243c-2.396,2.974-5.973,7.187-7.799,9.012
	c-0.675,0.674-1.42,1.399-1.42,1.399s0.432,0.427,0.861,0.839c1.039,0.999,6.194,4.858,6.605,4.943
	c0.25,0.052,0.386-0.013,0.765-0.56c0.342-0.493,0.8-1.281,0.8-1.281s-4.628-3.175-4.812-3.506c-0.104-0.186-0.07-0.315,0-0.474
	c0.281-0.633,11.078-13.123,11.325-13.715c0.035-0.083,0.058-0.157-0.007-0.281C60.205,202.562,58.68,201.28,58.68,201.28
	 M37.503,207.496c-0.399,2.329,0.64,4.491,2.264,5.595c0.764,0.519,1.999,1.25,2.837,1.061c0.235-0.053,1.54-1.349,1.616-1.604
	c0.2-0.673-0.202-0.542-1.027-0.555c-1.494-0.023-3.58-1.47-3.264-3.064c0.161-0.813,1.462-2.809,1.586-2.984
	c1.774-2.522,5.497-5.932,8.303-7.461c1.013-0.552,2.006-0.579,3.048,0.186c0.311,0.229,0.549,0.549,0.684,0.933
	c0.351,1,0.247,1.923,1.007,1.866c0.174-0.013,1.396-1.54,1.418-1.772c0.024-0.248-0.724-1.811-1.026-2.145
	c-1.746-1.929-3.209-2.018-5.877-1.4c-0.389,0.091-0.774,0.189-1.12,0.374c-0.465,0.247-0.86,0.649-1.306,0.933
	c-0.354,0.226-0.741,0.378-1.119,0.56c-0.566,0.272-4.506,3.681-5.097,4.411c-1.034,1.276-1.67,2.273-2.46,3.89
	C37.765,206.734,37.556,207.184,37.503,207.496 M20.742,190.296c0,0,1.083,1.848,1.554,2.403c0.547,0.644,1.156-0.089,2.053-0.933
	c0.619-0.583,3.534-2.3,5.346-3.378c0.433-0.258,0.506-0.265,0.73-0.075c0.166,0.142,0.283,0.312,0.418,0.499
	c0.934,1.286,2.062,2.46,1.995,2.88c-0.042,0.259-7.253,5.344-7.253,5.344s0.873,1.224,1.375,1.819
	c0.141,0.167,0.253,0.285,0.411,0.391c0.212,0.143,0.28,0.125,0.679-0.182l15.399-11.839c0.399-0.307,0.449-0.349,0.499-0.418
	c0.038-0.052,0.07-0.114,0.084-0.17c0.063-0.251-0.224-0.382-0.493-0.634c-0.453-0.425-1.093-1.325-1.093-1.325
	s-6.848,5.381-7.445,5.597c-0.088,0.032-0.146,0.036-0.224,0c-0.257-0.12-2.25-3.008-2.389-3.462
	c-0.049-0.161,0.067-0.406,0.262-0.549c1.344-0.987,7.436-4.985,7.436-4.985s-1.141-1.695-1.402-1.824
	c-0.121-0.06-0.21-0.03-0.316-0.018c-0.142,0.016-0.206,0.047-0.633,0.313L20.742,190.296z M19.778,182.813
	c-1.087,0.094-2.302-1.319-2.519-1.865c-0.149-0.375-0.231-0.821-0.186-1.294c0.102-1.052,0.363-1.295-0.355-1.131
	c-0.584,0.134-1.854,0.729-1.978,0.927c-0.509,0.819,0.837,3.763,1.679,4.576c0.75,0.724,2.315,1.451,3.247,1.586
	c0.371,0.054,2.588-0.444,2.911-0.653c0.459-0.298,1.307-1.202,1.812-1.931c1.628-2.353,4.609-7.116,5.278-7.77
	c1.601-1.563,3.162-1.807,4.292,0.28c0.079,0.146,0.147,0.283,0.186,0.433c0.123,0.464-0.122,1.497,0,1.614
	c0.094,0.09,1.21-0.588,1.68-1.021c0.825-0.759,0.679-1.334,0.029-2.484c-1.037-1.835-2.026-2.606-4.134-2.646
	c-3.979-0.076-7.621,6.823-9.473,9.478C21.765,181.599,20.815,182.723,19.778,182.813 M226.192,163.618l12.159,5.215
	c0,0-4.939-0.018-8.297-0.198c-2.123-0.114-5.44-0.908-5.848-0.56c-0.359,0.307-1.148,1.704-1.148,1.704s0.231,0.239,0.465,0.441
	c0.356,0.308,2.149,1.055,3.172,1.399c0.881,0.297,2.937,1.505,4.948,2.659c2.991,1.716,10.174,5.125,10.174,5.125l1.241-2.57
	l-11.512-5.587l14.007,0.373l1.107-2.379c0,0-16.093-6.276-17.726-7.134c-0.784-0.412-1.543-0.833-1.543-0.833
	s-0.167,0.215-0.323,0.46C226.572,162.518,226.192,163.618,226.192,163.618 M11.06,173.095l1.439,2.965c0,0,2.041-1.054,4.125-2.083
	c5.556-2.741,14.892-6.798,14.892-6.798s-0.641-1.602-0.85-2.074c-0.078-0.177-0.096-0.196-0.141-0.201
	C30.145,164.862,11.06,173.095,11.06,173.095 M5.204,157.998l0.953,2.603l12.035-3.717h0.466c0,0-5.034,3.941-8.001,6.65
	c-1.593,1.454-2.657,2.21-2.448,2.864c0.197,0.615,0.963,2.067,0.963,2.067l19.771-7.535l-1.183-2.184l-12.275,4.48v-0.298
	l10.888-8.784l-0.796-2.043L5.204,157.998z M2.217,144.971l11.786-2.164c0.496-0.091,0.556-0.094,0.6-0.03
	c0.033,0.047,0.061,0.109,0.073,0.155c0.021,0.076,0,0.109-0.029,0.147c-0.365,0.47-11.289,7.585-11.289,7.585
	s0.125,1.342,0.28,1.929c0.045,0.172,0.093,0.278,0.173,0.401c0.107,0.165,0.173,0.17,0.662,0.048l19.968-5l-0.518-2.198
	l-12.729,2.833v-0.199c0-0.089,0.047-0.13,0.467-0.409c2.769-1.834,6.199-4.18,8.396-5.362c2.426-1.305,3.1-1.064,2.705-2.537
	c-0.128-0.479-0.337-1.214-0.337-1.214l-20.774,3.319c0,0,0.068,1.047,0.307,1.925C2.07,144.602,2.217,144.971,2.217,144.971
	 M234.905,127.532v2.552c0,0,4.977,1.338,9.889,2.921c5.261,1.695,10.449,3.672,10.449,3.672v-3.176l-4.301-1.332l0.196-4.451
	l4.665-0.869l0.198-3.162c0,0-6.711,1.452-13.352,2.602C238.765,126.962,234.905,127.532,234.905,127.532 M241.619,128.749
	l7.28-0.78v3.592l-7.854-2.052c-0.488-0.126-0.548-0.146-0.611-0.196c-0.162-0.129-0.178-0.186,0.069-0.317
	c0.104-0.056,0.237-0.118,0.366-0.146C241.043,128.813,241.118,128.802,241.619,128.749 M250.575,158.371l0.788-3.014l-9.155-2.434
	c0,0,0.748-2.296,0.907-3.128c0.063-0.327,0.019-0.46-0.089-0.556c-0.243-0.214-1.925-0.775-2.038-0.679
	c-0.19,0.163-0.693,2.889-0.951,3.287c-0.155,0.239-0.339,0.271-0.978,0.136c-1.625-0.344-5.412-1.63-5.412-1.63l1.169-3.74
	l-2.34-0.68c0,0-0.916,3.832-1.395,4.981c-0.258,0.62-0.552,1.191-0.552,1.191s0.427,0.215,0.832,0.395
	c0.948,0.42,3.328,0.886,4.665,1.307c0.476,0.149,0.942,0.346,1.493,0.559C239.994,155.319,250.575,158.371,250.575,158.371
	 M237.518,136.083c-0.137-0.158-2.409-0.553-2.676-0.467c-0.774,0.252-1.674,2.874-1.429,4.481c0.668,4.389,9.903,6.277,13.49,6.525
	c4.295,0.297,8.101-1.282,7.967-5.876c-0.024-0.837-0.336-2.131-0.747-2.425c-0.209-0.15-2.219-0.638-2.426-0.466
	c-0.301,0.25,0.545,1.371,0.747,1.925c0.395,1.089,0.006,2.701-0.933,3.392c-2.177,1.604-9.166-0.091-11.008-0.56
	c-3.145-0.799-4.944-1.647-4.665-4.324c0.036-0.347,0.245-0.8,0.466-0.993C236.786,136.876,237.599,136.176,237.518,136.083
	 M170.721,219.681c-0.378,3.654,0.474,5.739,1.959,9.208c0.599,1.4,2.363,4.773,4.011,5.69c0.562,0.312,3.222,1.017,3.545,1.025
	c1.637,0.044,4.661-1.635,5.466-3.192c2.217-4.288-3.445-12.889-5.825-15.206c-2.144-2.087-4.973-2.754-7.445-0.863
	C171.529,217.035,170.855,218.384,170.721,219.681 M183.409,229.896c0.218,0.962-0.538,2.298-1.119,2.817
	c-3.759,3.36-7.786-6.582-8.26-8.128c-0.31-1.012-1.139-4.025-0.883-4.964c0.554-2.03,2.389-2.558,4.105-1.272
	c2.066,1.547,4.612,6.438,5.224,8.208C182.88,227.727,183.218,229.051,183.409,229.896 M230.183,197.122
	c0,0-1.352-0.904-2.655-1.794c-3.483-2.378-12.694-9.283-13.851-10.383c-0.086-0.083-0.182-0.146-0.303-0.081
	c-0.286,0.154-1.63,2.088-1.63,2.088l16.394,12.813L230.183,197.122z M217.553,179.23c-0.192,0.777,0.303,2.483,0.467,2.835
	c1.634,3.527,6.981,7.125,10.448,8.582c2.635,1.107,5.873,1.147,7.836-1.306c1.306-1.632,1.771-3.975,1.12-5.783
	c-1.307-3.625-9.506-7.74-12.744-8.395c-2.565-0.519-5.272-0.172-6.381,2.052C217.981,177.854,217.682,178.71,217.553,179.23
	 M235.092,185.67c0.485,1.384-0.971,2.707-1.925,2.925c-2.919,0.667-8.954-3.727-10.762-5.317c-1.157-1.018-3.168-3.179-2.239-4.632
	c1.949-3.048,8.669,1.144,10.396,2.288C232.602,182.286,234.269,183.325,235.092,185.67 M199.919,224.438l-1.555-2.363
	c0,0-0.388,1.034-0.682,1.59c-0.729,1.38-2.308,2.122-3.579,1.866c-2.794-0.564-7.246-8.605-7.989-10.82
	c-0.605-1.806-0.348-2.98,1.213-4.01c0.346-0.229,1.346-0.52,1.604-0.467c0.601,0.123,1.056,0.293,1.008-0.298
	c-0.02-0.236-0.901-1.421-1.165-1.567c-0.875-0.482-3.594,0.49-4.433,1.679c-1.852,2.626-0.768,5.804,0.56,8.768
	c1.263,2.82,4.024,7.461,6.904,8.674c1.798,0.757,4.438,0.708,5.97-0.56C198.4,226.413,199.919,224.438,199.919,224.438
	 M191.059,206.037c0,0,10.57,13.817,11.254,15.043c0.558,1,0.797,1.688,1.497,1.28c0.572-0.334,1.989-1.772,1.989-1.772
	s-7.008-8.741-9.826-12.683c-0.075-0.104-2.253-3.448-2.833-3.406C192.898,204.517,191.059,206.037,191.059,206.037
	 M205.747,196.967l2.024-2.023c0,0,0.658,0.683,1.277,1.316c2.771,2.838,7.553,7.115,11.387,10.612
	c0.373,0.339,0.431,0.379,0.58,0.396c0.111,0.012,0.218,0.013,0.333-0.019c0.248-0.068,1.715-1.602,1.922-2.009
	c0.061-0.12,0.088-0.203,0.066-0.304c-0.046-0.223-1.4-1.448-2.258-2.043c-0.308-0.214-0.566-0.387-0.834-0.573
	c-1.322-0.919-9.079-7.77-10.155-8.968c-0.102-0.114-0.201-0.226-0.27-0.359c-0.093-0.18-0.064-0.24,0.292-0.596l1.924-1.924
	c0,0-1.081-1.007-1.546-1.449c-0.661-0.625-1.148,0.366-2.121,1.682c-0.591,0.798-1.457,1.814-2.029,2.249
	c-0.111,0.084-0.221,0.159-0.33,0.246c-0.813,0.655-2.147,2.462-2.154,2.588c-0.017,0.311,0.349,0.87,0.822,1.293
	c0.208,0.186,0.389,0.312,0.597,0.289C205.344,197.364,205.391,197.323,205.747,196.967 M230.329,90.982l-1.55-3.686
	c-0.195-0.464-0.219-0.532-0.235-0.674c-0.033-0.289,0.01-0.391,0.251-0.599c0.125-0.108,0.192-0.139,0.668-0.303l16.45-5.693
	c0,0-0.038-0.222-0.08-0.43c-0.182-0.894-0.5-1.641-0.774-2.176c-0.035-0.068-0.069-0.135-0.12-0.191
	c-0.067-0.076-0.128-0.064-0.6,0.112l-19.111,7.159c0,0,1.114,2.773,1.747,4.479c0.295,0.797,0.487,1.36,0.65,2.065
	c0.114,0.492,0.147,0.548,0.334,0.569c0.139,0.016,0.251,0.009,0.416-0.023C228.993,91.471,230.329,90.982,230.329,90.982
	 M198.334,200.453c0,0,0.927,1.517,1.774,2.88c2.145,3.452,6.286,10.858,6.624,11.846c0.313,0.914,1.034,2.489,1.451,3.046
	c0.183,0.244,0.392,0.499,0.392,0.499s0.831-0.555,1.329-0.934c0.297-0.226,0.476-0.389,0.651-0.64
	c0.236-0.338,0.234-0.424-0.021-0.859c-0.833-1.417-1.924-3.25-1.749-3.695c0.102-0.259,1.694-1.499,2.593-2.109
	c0.517-0.352,0.717-0.481,1.166-0.333c0.477,0.157,1.96,1.266,2.893,1.968c0.402,0.304,0.479,0.318,0.771,0.144
	c0.216-0.129,0.365-0.278,0.571-0.488c0.527-0.538,1.428-1.477,1.428-1.477s-7.91-4.947-13.009-8.504
	c-2.363-1.647-4.652-3.325-4.652-3.325L198.334,200.453z M206.187,208.808c-0.579-1.076-1.212-2.16-1.88-3.144
	c-0.649-0.957-1.532-2.259-1.306-2.519c0.116-0.133,4.341,3.158,6.461,4.805c0.398,0.309,0.443,0.354,0.455,0.455
	c0.045,0.403-0.207,0.513-0.896,1.047c-0.659,0.512-1.224,1.134-1.449,1.154c-0.135,0.013-0.213-0.117-0.423-0.347
	c-0.151-0.166-0.37-0.383-0.5-0.613C206.471,209.336,206.425,209.252,206.187,208.808 M223.637,81.023l19.328-8.289l-1.329-2.718
	l-19.125,8.63L223.637,81.023z M18.218,77.229h3.659l0.653-0.187l4.712-0.333c0.502-0.036,0.603-0.036,1.005-0.001
	c0.805,0.069,2.287,0.885,2.632,1.267c0.561,0.622,0.665,1.819,0.187,2.425c-0.566,0.717-2.152,1-1.772,1.567
	c0.357,0.535,2.104,0.806,2.489,0.671c1.169-0.408,1.988-2.816,1.989-3.917c0.001-2.93-3.253-4.506-5.78-4.663
	c-1.87-0.116-9.065,0.528-9.896,0.373c-1.363-0.255-2.304-1.054-2.049-2.552c0.058-0.341,0.189-0.681,0.467-0.993
	c0.735-0.828,1.643-1.146,1.34-1.567c-0.365-0.508-1.741-1.101-2.068-1.044c-1.034,0.177-2.268,3.518-2.351,4.216
	c-0.27,2.26,0.896,3.631,2.985,4.458c0.266,0.105,0.534,0.202,0.816,0.233C17.616,77.225,17.714,77.229,18.218,77.229
	 M177.998,203.034c-0.028,0.069-0.037,0.222,0,0.298c0.053,0.107,0.24,0.042,0.429-0.049c1.005-0.481,9.8-6.685,11.699-8.252
	c6.131-5.063,12.343-11.798,17.352-18.562c1.188-1.604,4.969-7.855,4.851-8.021c-0.058-0.081-0.173-0.1-0.314-0.083
	c-0.358,0.043-13.946,11.201-15.172,11.928c-0.452,0.268-0.863,0.471-1.306,0.747c-4.283,2.656-10.715,9.742-12.934,12.991
	C180.674,196.856,179.579,199.163,177.998,203.034 M217.18,68.928c0,0,0.491,0.94,0.746,1.492c0.236,0.512,0.385,0.711,0.485,0.653
	c1.011-0.588,8.284-4.291,8.284-4.291v0.199c0,0.089-0.036,0.143-0.357,0.531c-1.087,1.312-1.884,2.26-3.386,3.826
	c-1.15,1.198-2.713,2.758-2.713,2.758l1.393,2.742c0,0,6.922-8.463,7.489-8.844c0.261-0.175,2.194-0.459,3.172-0.466
	c1.724-0.012,4.599-0.409,6.904-0.53c0.503-0.026,0.567-0.045,0.64-0.184c0.313-0.603-0.038-0.972-1.128-2.626
	c-0.179-0.271-0.23-0.267-0.814-0.164c-2.596,0.456-9.053,1.452-9.053,1.452l0.28-0.279l7.161-4c0.44-0.246,0.49-0.28,0.497-0.348
	c0.039-0.345-0.321-0.573-0.772-1.211c-0.393-0.557-0.797-1.388-0.797-1.388L217.18,68.928z M213.822,58.59l-2.361,1.883
	c0,0,0.419,1.717,0.775,2.392c0.619,1.177,3.224,2.197,4.534,2.052c2.123-0.234,3.673-1.638,4.609-3.171
	c1.574-2.581,4.724-8.354,5.13-8.675c0.333-0.262,1.407-0.766,2.116-0.466c0.27,0.114,0.939,0.776,1.149,1.119
	c0.752,1.228,0.387,2.694,1.276,2.238c0.572-0.293,1.769-1.27,1.769-1.27s-0.961-2.169-1.552-3.021
	c-0.906-1.303-3.508-2.167-4.885-1.865c-1.993,0.438-3.314,2.372-4.351,4.477c-0.818,1.661-3.177,7.442-5.471,8.021
	c-1.356,0.343-2.555-0.457-2.739-1.925C213.733,59.672,213.822,58.59,213.822,58.59 M222.229,139.721l0.455-3.637
	c0,0-4.375,4.557-7.93,8.021c-1.781,1.735-11.658,10.008-13.807,11.565c-11.09,8.034-29.643,20.352-38.902,31.992
	c-4.071,5.118-7.096,11.017-8.396,17.349c-0.314,1.528-1.231,6.315-1.026,7.555c0.04,0.237,0.097,0.463,0.187,0.653
	c0.117,0.248,0.234,0.297,0.557,0.281c0.572-0.026,6.421-2.273,6.421-2.273s0.66-3.146,1.231-5.376
	c2.124-8.295,5.531-12.103,11.008-18.748c0.969-1.175,2.885-3.583,3.795-3.171c0.632,0.286,0.906,2.531,1.522,3.731
	c0.056,0.109,0.105,0.161,0.167,0.187c0.182,0.076,3.628-3.21,6.176-5.597c1.473-1.379,4.819-3.642,6.81-5.316
	c0.213-0.18,0.423-0.364,0.583-0.592c0.214-0.307,0.211-0.39-0.032-0.831l-1.607-2.91c0,0,0.675-0.65,1.284-1.214
	c1.564-1.448,4.647-3.59,7.889-6.112c2.264-1.762,5.433-4.475,5.433-4.475s-1.253-1.23-1.888-1.868
	c-0.302-0.304-0.558-0.763-0.466-0.839c0.764-0.641,4.604-3.483,7.93-6.25c2.81-2.337,8.124-7.417,12.129-11.186
	C222.119,140.315,222.167,140.221,222.229,139.721 M22.004,57.493c-0.008,0.074-0.001,0.149,0.013,0.224
	c0.046,0.243,11.769,6.73,13.62,8.04c0.662,0.469,1.7,1.681,1.493,2.556c-0.347,1.465-1.678,1.805-2.553,1.642
	c-0.616-0.115-5.736-2.823-8.643-4.571c-2.903-1.746-6.524-3.786-6.524-3.786s-1.408,2.089-1.499,2.499
	c-0.018,0.081-0.021,0.149-0.013,0.224c0.012,0.101,0.063,0.138,0.511,0.368l13.931,7.155c0.448,0.23,0.538,0.27,0.9,0.396
	c1.138,0.396,3.108,0.117,3.702-0.139c1.755-0.759,3.14-3.018,2.799-4.948c-0.219-1.243-0.876-2.25-1.679-2.887
	c-1.39-1.105-11.328-6.979-13.061-8.302c-0.662-0.505-1.341-1.047-1.341-1.047l-1.333,2C22.048,57.334,22.016,57.392,22.004,57.493
	 M128.927,216.763h1.772c0.504,0,0.566,0.004,0.623,0.038c0.041,0.025,0.09,0.042,0.135,0.052c0.3,0.067,0.575-0.224,0.806-0.359
	c0.337-0.196,6.917-0.37,7.3-0.57c0.128-0.067,0.209-0.154,0.28-0.279c0.206-0.364,0.461-3.875,0.747-6.156
	c0.346-2.77,2.226-7.96,3.591-10.614c1.429-2.778,2.873-4.394,2.391-5.647c-0.358-0.932-2.041-3.636-2.041-3.636
	s2.579-3.234,4.642-5.66c4.254-5.002,12.866-12.824,18.751-16.789c1.056-0.711,2.27-1.5,2.27-1.5s0.7,2.898,0.902,4.036
	c0.087,0.492,0.127,0.601,0.513,0.572c0.346-0.025,4.683-3.427,7.169-5.212c1.742-1.251,4.256-2.744,5.192-3.587
	c0.573-0.516,1.195-1.137,1.195-1.137s-0.681-1.86-0.926-2.743c-0.052-0.187-0.084-0.33-0.083-0.5c0-0.229,0.045-0.288,0.447-0.592
	l8.825-6.674c0,0-0.357-0.396-0.694-0.829c-0.875-1.126-1.678-2.644-1.678-2.644s2.9-2.228,5.135-4.003
	c4.91-3.9,14.764-12.659,18.938-17.536c1.879-2.194,3.63-4.61,5.597-6.715c0.834-0.892,1.854-2.245,1.959-2.612
	c0.135-0.472,0.052-1.246,0.039-2.092c-0.019-1.123,0.011-2.088-0.617-2.012c-0.244,0.029-3.37,4.232-4.926,6.622
	c-1.672,2.568-9.056,9.943-10.396,11.254c-3.336,3.259-18.708,16.616-23.562,19.806c-1.222,0.803-2.492,1.562-3.495,2.397
	c-0.272,0.226-0.524,0.458-0.796,0.681c-0.801,0.655-3.771,2.245-5.784,3.358c-7.187,3.975-19.325,13.861-23.976,18.374
	c-9.668,9.384-15.049,16.662-18.472,28.355c-0.52,1.778-1.484,6.859-1.586,8.357C128.933,213.246,128.927,216.763,128.927,216.763
	 M168.669,146.81c0,0,0.277,2.886,0.187,4.011c-0.104,1.295-0.496,1.664,0.261,1.399c0.669-0.234,6.534-4.625,9.627-6.622
	c1.653-1.067,3.667-2.593,3.732-2.829c0.121-0.435-0.509-4.932-0.373-5.163c0.232-0.397,2.517-2.107,2.5-2.278
	c-0.035-0.372-1.282-2.233-1.521-3.012c-0.035-0.11-0.05-0.21-0.046-0.318c0.01-0.252,8.666-7.372,13.621-11.49
	c4.816-4.004,13.339-14.046,16.674-19.234c0.453-0.705,0.883-1.407,1.331-2.032c0.718-1.003,2.921-5.125,2.892-5.41
	c-0.06-0.578-1.287-3.564-1.287-3.564s-1.927,3.956-3.471,6.736c-7.262,13.072-23.311,26.847-34.051,34.977
	c-2.924,2.213-14.095,9.809-16.326,11.099c-0.591,0.342-1.181,0.675-1.772,1.026c-0.372,0.22-10.878,7.533-14.203,9.29
	c-0.545,0.288-1.087,0.55-1.63,0.836c-7.23,3.825-18.544,14.396-23.354,20.628c-5.118,6.632-11.347,17.864-13.335,26.233
	c-0.644,2.707-1.504,7.129-1.4,9.701c0.062,1.496,0.269,3.345,0.269,3.345s6.583,1.206,8.097,1.263
	c0.789,0.029,1.543,0.014,1.543,0.014s-1.99-2.706-2.819-3.97c-0.369-0.563-0.508-0.841-0.56-1.25
	c-0.262-2.091,1.968-9.211,2.892-11.342c1.211-2.793,3.361-6.96,3.361-6.96s0.885,5.478,1.117,5.841
	c0.14,0.222,0.26,0.177,0.483-0.047c0.355-0.357,2.043-4.349,3.155-6.761c2.277-4.94,9.727-13.415,13.315-17.308
	c0.341-0.371,0.369-0.428,0.272-0.577c-0.071-0.11-0.111-0.235-0.155-0.361c-0.637-1.835-1.259-2.538-0.831-3.316
	c0.635-1.154,2.444-2.228,3.724-3.156c0.656-0.476,1.304-1.014,1.958-1.586c1.29-1.127,25.19-17.81,25.524-17.815
	C168.37,146.805,168.669,146.81,168.669,146.81 M116.986,163.735v5.459h0.54c0.243,0,0.313-0.036,0.703-0.354
	c4.784-3.912,9.907-8.251,14.243-11.865c0.339-0.283,0.674-0.561,0.951-0.9c0.32-0.392,0.343-0.49,0.232-0.982
	c-0.313-1.382-0.995-3.945,0.168-3.544c0.79,0.271,0.961,0.338,1.655-0.684c0.112-0.166,0.253-0.366,0.331-0.573
	c0.104-0.28,0.161-0.344,0.571-0.636l24.427-17.437c0,0-1.428-2.199-1.728-2.385c-0.098-0.061-0.168-0.055-0.219-0.079
	c-0.123-0.059-0.129-0.3-0.079-0.544c0.056-0.269,8.571-6.385,10.822-7.771c4.54-2.797,19.084-15.564,23.416-19.96
	c5.449-5.531,9.624-10.958,13.713-17.535c1.336-2.149,3.071-5.395,3.172-5.933c0.024-0.128,0.026-0.231-0.063-0.448
	c-0.271-0.656-1.378-2.357-1.378-2.357s-2.42,4.646-4.342,7.898c-11.135,18.846-35.737,36.867-52.823,47.916
	c-11.535,7.459-27.361,18.003-37.481,26.888c-10.708,9.401-20.306,20.86-25.095,34.604c-0.767,2.202-1.298,4.346-2.052,6.902
	c-0.382,1.294-1.216,6.307-1.088,6.54c0.638,1.168,9.646,4.585,9.95,4.653c0.633,0.141,0.964-0.099,1.213-0.746
	c0.236-0.612,0.448-4.085,0.747-6.156c0.428-2.967,3.864-12.815,4.944-14.55c0.999-1.604,3.266-6.097,3.246-6.432
	c-0.038-0.644-1.587-5.143-1.587-5.143s4.435-5.375,7.257-8.332C114.099,166.368,116.986,163.735,116.986,163.735 M101.601,158.445
	l-0.66-4.238l15.859-12.361c0,0-0.024,4.453,0.13,5.392c0.112,0.68,0.899-0.085,3.042-1.641c4.96-3.603,11.272-8.183,11.271-8.415
	c0-0.138-0.094-0.238-0.154-0.719c-0.13-1.04-0.109-3.854-0.109-3.854s16.143-10.869,18.285-12.568
	c0.577-0.458,1.087-0.867,1.011-1.09c-0.055-0.162-0.382-0.3-0.731-0.682c-0.499-0.544-1.169-1.828-1.169-1.828
	s0.941-0.75,1.822-1.437c3.006-2.342,8.942-6.247,12.595-8.86c5.737-4.105,18.143-14.635,22.109-18.934
	c2.519-2.73,9.601-11.6,12.408-16.51c1.268-2.217,3.157-5.816,3.157-5.816l-1.979-1.979c0,0-0.979,1.929-1.738,3.318
	c-5.38,9.855-14.926,20.029-22.11,26.489c-6.35,5.71-15.739,13.237-22.982,18.143c-3.606,2.442-7.44,4.782-11.163,7.321
	c-4.245,2.894-8.345,6.047-12.5,8.767c-3.386,2.216-7.188,4.417-10.262,6.622c-4.482,3.216-11.737,8.842-12.967,9.514
	c-0.406,0.222-0.806,0.422-1.213,0.653c-3.666,2.079-12.637,10.528-16.046,14.083c-6.998,7.3-13.656,16.378-16.885,25.37
	c-0.229,0.635-3.556,9.793-3.323,10.481c0.088,0.263,0.626,0.786,1.177,1.178c1.329,0.946,7.267,6,8.284,5.689
	c0.21-0.064,1.753-6.841,2.818-10.633c1.623-5.784,7.14-14.004,10.317-18.058c3.146-4.013,7.477-8.824,11.383-12.464
	C101.646,159.036,101.678,158.943,101.601,158.445 M131.676,113.644c3.499-2.204,9.643-6.037,10.405-6.754
	c0.283-0.266,0.569-0.546,0.569-0.546s-0.472-0.472-0.849-1.039c-0.482-0.725-0.967-2.056-0.967-2.056s6.782-4.566,11.696-8.112
	c9.85-7.106,21.585-17.352,29.013-27.048c1.62-2.115,4.197-6.034,6.344-9.607c0.725-1.206,1.926-3.049,1.679-3.701
	c-0.068-0.182-1.373-1.764-2.02-1.797c-0.096-0.005-0.133,0.044-0.367,0.49c-6.015,11.489-12.405,19.13-22.615,28.418
	c-5.629,5.122-14.691,11.994-20.738,16.279c-2.814,1.995-31.31,19.959-36.169,22.802c-12.201,7.138-24.492,15.476-35.45,25.929
	c-7.31,6.973-15.401,16.718-19.125,26.396c-0.545,1.417-1.176,3.206-1.176,3.206s3.764,5.337,5.841,7.8
	c0.687,0.815,1.253,1.406,1.959,1.958c0.617,0.484,0.898,0.322,1.213-0.466c0.271-0.682,0.375-1.807,0.56-2.798
	c1.077-5.791,7.578-15.67,10.729-19.494c8.132-9.87,17.208-16.647,27.054-23.691c0.223-0.16,0.427-0.307,0.56-0.589
	c0.139-0.297-0.187-4.977-0.187-4.977s17.826-12.032,18.21-12.062c0.274-0.022,0.491,0.005,0.57,0.246
	c0.124,0.379-0.326,4.814-0.326,4.814l12.891-8.542l0.197-4.203C131.2,113.998,131.25,113.913,131.676,113.644 M28.36,49.135
	c-0.238,2.223,0.873,4.056,2.333,5.708c1.37,1.55,5.569,4.257,7.743,5.13c2.582,1.036,4.346,1.559,6.531,0.746
	c1.254-0.467,2.293-1.492,2.721-2.858c0.69-2.208-1.316-5.445-2.814-7.123c-4.188-4.687-11.163-9.818-15.3-4.477
	C28.967,47.046,28.477,48.049,28.36,49.135 M45.339,56.209c0.48,1.148-0.542,2.286-1.243,2.552
	c-2.339,0.889-7.903-3.188-8.982-4.063c-1.06-0.861-2.092-1.806-2.968-2.811c-1.449-1.662-2.015-3.518-0.055-4.785
	c2.816-1.821,8.632,3.645,9.961,4.821C43.363,53.083,44.606,54.458,45.339,56.209 M117.173,104.39l-1.27-3.258l13.906-8.238
	c0,0-3.756,7.858-4.521,8.959c-0.759,1.093-2.71,3.608-2.332,4.104c0.114,0.15,8.402-4.342,8.396-4.551
	c-0.003-0.109-0.073-0.193-0.115-0.37c-0.054-0.228-0.062-0.608-0.072-0.974c-0.016-0.651,0.654-3.987,0.84-4.179
	c0.504-0.52,3.182-2.013,3.373-2.317c0.32-0.512-0.206-0.541-0.947-1.786c-0.387-0.651-0.725-1.592-0.725-1.592
	s3.996-2.826,6.882-4.938c11.627-8.507,20.033-17.755,28.733-29.846c2.916-4.053,6.81-9.793,6.81-9.793l-1.316-1.051
	c-0.394-0.314-0.445-0.35-0.512-0.357c-0.491-0.055-0.685,0.579-0.781,0.902c-0.159,0.534-10.445,14.625-11.943,16.362
	c-2.109,2.444-3.9,4.79-5.971,7.088c-11.091,12.315-28.108,23.777-41.98,30.967c-4.641,2.405-19.774,10.946-23.136,13.058
	c-14.455,9.079-27.883,18.803-38.042,30.446c-3.417,3.917-6.108,7.497-8.922,12.339c-1.642,2.826-1.548,3.283,0.002,6.581
	c1.24,2.636,3.411,6.715,4.088,7.59c0.288,0.373,0.404,0.473,0.632,0.405c0.224-0.067,2.169-4.43,3.34-7.088
	c1.984-4.509,10.267-14.108,12.781-16.696c4.349-4.475,11.023-9.865,15.673-13.431c2.479-1.901,14.088-9.752,16.139-10.912
	c0.774-0.439,3.003-1.542,3.265-1.989c0.131-0.224-0.198-2.653-0.187-3.906c0.008-0.965,0.375-1.228,1.306-1.753
	C105.768,111.226,117.173,104.39,117.173,104.39 M61.734,61.521c-0.1,0.108,0.288,0.086,0.621,0.039
	c0.505-0.073,1.48-0.485,2.015-0.839c1.962-1.3,5.092-2.834,7.836-4.477c5.041-3.019,11.313-7.901,15.351-12.236
	c0.33-0.355,0.646-0.703,0.811-1.056c0.086-0.183,0.131-0.368,0.07-0.419c-0.208-0.173-2.778,1.575-2.799,1.585
	c-0.708,0.372-1.279,0.504-1.866,0.747c-0.667,0.274-7.244,5.772-9.72,7.432c-2.463,1.649-6.083,3.5-6.855,4.177
	c-0.653,0.572-1.185,1.221-1.964,1.951C64.13,59.46,62.525,60.66,61.734,61.521 M111.306,90.621l-1.198-2.716
	c0,0,7.805-4.97,13.129-8.624c12.056-8.275,26.544-22.987,35.73-36.563c1.251-1.85,2.654-4.001,2.654-4.001l-1.962-0.928
	c0,0-3.264,4.81-5.916,8.38c-5.096,6.86-16.438,19.127-23.509,24.811c-7.952,6.391-20.342,14.615-29.293,19.4
	c-3.013,1.61-6.137,3.062-9.192,4.595c-13.698,6.876-37.439,21.687-48.611,35.267c-0.744,0.904-5.813,7.219-6.007,7.923
	c-0.101,0.364,0.063,2.139,0.273,2.967c0.528,2.076,1.176,4.533,1.686,7.356c0.351,1.945,0.59,3.797,1.474,3.543
	c0.274-0.079,3.938-5.812,6.052-9.287c3.924-6.453,16.769-17.23,21.526-20.793c9.753-7.307,19.216-12.933,30.486-18.824
	c0.446-0.233,0.502-0.314,0.554-0.816c0.134-1.276,0.64-4.275,0.827-4.488c0.18-0.205,0.739-0.369,1.306-0.541
	c0.81-0.246,8.511-4.625,9.516-5.41c0.187-0.146,0.359-0.286,0.497-0.467C111.511,91.16,111.509,91.082,111.306,90.621
	 M38.792,36.471l-1.955,2.345c0,0,4.756,4.13,4.957,4.537c0.031,0.062,0.051,0.119,0.088,0.173c0.134,0.199,0.481,0.375,0.845,0.592
	c0.752,0.447,9.371,8.761,9.371,8.761s0.323-0.486,0.705-0.926c0.429-0.496,0.933-0.933,0.933-0.933s-9.172-8.395-9.889-9.327
	c-0.482-0.627-0.91-1.25-0.91-1.25s3.912,1.263,5.947,2.183c1.052,0.476,1.58,0.823,1.679,0.652c0.116-0.198-2.522-7.02-2.425-7.275
	c0.034-0.089,0.144-0.082,0.298,0c0.503,0.268,9.958,10.727,9.958,10.727l1.819-1.792c0,0-0.365-0.318-0.713-0.624
	c-1.217-1.068-8.216-8.811-9.03-9.989c-0.986-1.428-3.674-4.643-3.899-4.664c-0.314-0.029-0.761,0.469-1.767,1.244
	c-0.579,0.447-0.66,0.492-0.584,0.883c0.224,1.162,1.532,4.98,2.146,6.268c0.348,0.729,0.746,1.492,0.746,1.492s-0.474,0.045-0.84,0
	c-0.359-0.044-0.92-0.403-1.306-0.653c-0.544-0.353-2.238-0.743-4.105-1.492C39.898,37.016,38.792,36.471,38.792,36.471
	 M200.574,46.445c-0.172,1.197,0.057,2.913,0.653,3.735c0.647,0.892,2.32,1.936,3.34,2.052c1.105,0.125,2.836-0.43,3.843-0.84
	c4.241-1.725,10.323-6.854,10.822-11.51c0.24-2.24-0.998-4.058-3.172-5.279c-3.754-2.109-8.552,1.776-11.146,4.728
	C203.878,40.512,200.917,44.072,200.574,46.445 M216.434,38.61c0.208,1.756-0.401,2.634-1.493,4.108
	c-0.586,0.791-2.531,2.725-3.328,3.308c-0.621,0.455-1.271,0.858-1.803,1.355c-0.291,0.272-0.546,0.572-0.84,0.839
	c-0.517,0.47-3.952,2.381-5.225,1.306c-0.993-0.84-0.862-2.25-0.466-3.265c0.783-2.006,6.038-7.352,7.183-8.114
	c1.625-1.082,3.483-2.119,5.038-1.119C216.085,37.405,216.346,37.865,216.434,38.61 M200.66,25.198c0,0,0.481,0.422,0.907,0.741
	c1.114,0.837,1.871,1.004,2.113,1.761c0.06,0.187,0.031,0.25-0.29,0.639l-11.207,13.592l2.069,1.798
	c0,0,11.816-14.135,12.091-14.169c0.193-0.023,3.005,2.46,3.005,2.46l1.605-1.821c0,0-1.87-1.349-2.729-2.124
	c-0.407-0.368-0.587-0.606-0.933-0.933c-1.017-0.96-5.131-3.824-5.131-3.824L200.66,25.198z M187.133,31.26
	c-0.666,1.114-1.285,2.176-2.138,3.25c-0.804,1.012-1.222,1.35-0.948,1.706c0.406,0.527,1.552,1.356,2.124,1.292
	c0.1-0.011,0.143-0.059,0.429-0.473l10.094-14.625l3.288,2.379l1.283-1.97l-2.743-2.019l-6.335-3.983c0,0-0.95,1.299-1.128,1.726
	c-0.225,0.54,1.23,0.977,2.589,1.915c0.462,0.318,0.508,0.479,0.396,0.872c-0.156,0.549-4.151,6.03-6.295,8.997
	C187.453,30.734,187.392,30.828,187.133,31.26 M40.861,95.771c-0.028,0.069-0.019,0.195,0,0.298c0.041,0.216,4.865-4.401,6.53-6.249
	c1.93-2.143,11.777-8.873,15.3-11.006c2.272-1.376,6.9-3.513,10.355-5.317c7.823-4.085,18.023-11.441,24.909-17.535
	c7.304-6.464,10.443-10.119,15.369-18.297c0.605-1.005,1.283-2.379,1.385-2.908c0.043-0.223,0.044-0.49-0.19-0.579
	c-0.083-0.031-0.182-0.019-0.29,0c-2.966,0.518-3.026,1.912-4.706,4.902c-3.008,5.354-11.598,13.583-15.113,16.509
	c-6.361,5.297-13.542,10.616-20.524,14.458c-3.212,1.767-6.609,3.476-9.795,5.316c-8.514,4.917-10.754,6.849-17.446,12.219
	C42.499,90.91,42.737,91.145,40.861,95.771 M85.889,92.868l0.426,0.104c0.191,0.046,0.261,0.024,0.702-0.219
	c4.289-2.37,10.92-6.411,12.784-7.254c0.367-0.166,0.724-0.378,0.86-0.621c0.19-0.341,0.353-4.002,0.56-4.478
	c0.308-0.707,2.51-2.01,3.732-2.797c0.208-0.134,0.501-0.663,0.466-0.839c-0.132-0.67-1.412-3.336-1.412-3.336
	s8.975-6.539,12.514-9.443c9.201-7.551,18.56-17.621,23.173-26.847c0.782-1.565,1.72-3.529,1.72-3.529l-2.474-0.218
	c0,0-1.565,3.177-2.828,5.41c-4.241,7.497-13.471,16.775-19.684,22.012c-5.881,4.957-23.101,17.163-31.252,21.453
	c-3.676,1.935-7.776,3.606-11.662,5.503c-10.44,5.096-21.348,12.382-29.479,19.867c-0.739,0.681-6.591,6.103-7.394,8.286
	c-0.146,0.395-0.186,0.784-0.212,1.481c-0.031,0.814-0.043,2.048-0.043,2.048s1.079-1.661,1.959-2.861
	c5.129-6.992,19.235-16.993,24.536-20.24c3.213-1.969,12.039-7.021,15.113-8.395c2.525-1.129,5.791-2.347,7.65-3.358
	c3.884-2.112,10.121-6.111,10.729-6.25c0.304-0.069,0.364-0.017,0.28,0.299c-0.124,0.464-2.523,3.77-4.477,6.168
	C89.294,88.348,85.889,92.868,85.889,92.868 M49.828,26.577c0,0,6.531,7.529,7.639,9.147c0.19,0.277,0.35,0.527,0.547,0.778
	c0.41,0.522,0.981,1.045,1.413,1.553c0.519,0.61,0.835,1.197,1.493,2.052c0.829,1.077,2.202,2.579,2.202,2.579l6.418-4.803
	l-1.53-1.88L64.446,38.9c-0.391,0.318-0.455,0.344-0.639,0.255c-0.137-0.065-0.246-0.149-0.37-0.261
	c-0.645-0.587-4.084-5.465-4.084-5.465s3.827-2.373,4.084-2.724c0.044-0.062,0.035-0.094-0.034-0.209
	c-0.248-0.414-1.256-1.897-1.256-1.897s-2.369,2.039-3.43,2.685c-0.418,0.255-0.692,0.34-0.941,0.242
	c-1.018-0.403-3.685-4.897-3.668-4.943c0.089-0.258,4.583-3.124,4.665-3.376c0.077-0.237-0.395-1.132-1.11-1.656
	c-0.206-0.151-0.386-0.155-0.569-0.098c-0.518,0.162-4.286,3.322-6.207,4.501C50.374,26.269,49.828,26.577,49.828,26.577
	 M68.002,14.863c0,0,6.384,10.914,6.257,11.066c-0.487,0.587-3.855-2.738-5.784-4.383c-0.816-0.697-4.715-4.008-5.635-3.824
	c-0.36,0.072-1.47,0.783-1.788,1.091c-0.085,0.082-0.124,0.137-0.151,0.203c-0.088,0.208,10.623,16.846,11.055,17.173
	c0.125,0.094,0.284,0.113,0.5,0c0.531-0.278,1.722-1.272,1.722-1.272s-0.531-0.731-1.039-1.433
	c-1.479-2.041-5.292-8.221-5.411-8.767c-0.06-0.276-0.027-0.395,0.298-0.28c0.391,0.137,1.923,1.608,2.874,2.332
	c0.375,0.285,0.712,0.473,1.12,0.746c1.349,0.904,6.292,5.297,6.292,5.297s0.904-0.506,1.358-0.82
	c0.176-0.122,0.284-0.214,0.395-0.353c0.149-0.187,0.139-0.256-0.1-0.7l-9.374-17.412L68.002,14.863z M178.792,33.297
	c0,0,9.895-17.525,9.842-17.813c-0.083-0.445-0.255-0.388-1.094-0.889c-0.434-0.26-1.037-0.679-1.037-0.679
	s-2.173,3.527-3.653,6.232c-1.728,3.159-2.51,5.198-3.865,7.441c-0.143,0.237-0.292,0.476-0.444,0.658
	c-0.084,0.101-0.169,0.185-0.262,0.295c-0.513,0.612-1.917,3.349-1.917,3.349L178.792,33.297z M170.264,28.78
	c0,0,0.24,0.166,0.458,0.32c0.426,0.302,2.295,1.016,2.333,0.892c0.386-1.263,8.575-18.292,8.575-18.292s-0.216-0.167-0.459-0.321
	c-0.708-0.45-2.411-1.048-2.411-1.048s-0.891,2.404-1.507,3.66c-0.21,0.428-0.389,0.722-0.56,1.026
	c-1.004,1.781-2.278,5.498-4.478,9.98C171.341,26.775,170.264,28.78,170.264,28.78 M91.809,26.605c0,0-0.54-0.995-1.037-1.982
	c-0.65-1.288-2.444-6.168-2.333-6.342c0.187-0.29,0.966,0.473,2.333,2.052c1.792,2.071,4.246,5.172,4.246,5.172l2.716-1.013
	l-7.239-7.972c-0.339-0.373-0.373-0.47-0.338-0.972c0.23-3.376,0.692-9.811,0.521-10.138c-0.027-0.051-0.062-0.042-0.289,0.034
	c-0.68,0.227-3.079,1.052-3.079,1.052l0.569,9.36h-0.447l-3.377-8.208l-2.742,1.106l7.735,19.023L91.809,26.605z M167.341,6.032
	c0,0-5.336,16.094-6.135,17.845c-0.316,0.693-0.639,1.363-0.639,1.363s6.988,2.835,7.406,2.807c0.15-0.01,0.209-0.127,0.358-0.471
	c0.447-1.033,0.66-1.33,0.337-1.553c-0.324-0.224-1.117-0.664-1.866-0.933c-1.253-0.451-2.094-0.423-2.633-1.099
	c-0.149-0.187-0.146-0.259,0.031-0.73l6.008-15.977L167.341,6.032z M152.939,23.105c0.161,0.1,0.314,0.148,0.524,0.213
	c0.635,0.197,1.787,0.549,1.787,0.549s2.149-8.542,2.504-9.131c0.224-0.371,0.453-0.613,0.653-0.933
	c0.178-0.284,0.335-0.629,0.56-1.025c0.596-1.052,5.711-7.214,5.711-7.214s-0.223-0.183-0.487-0.341
	c-0.537-0.323-2.433-0.839-2.433-0.839s-2.45,3.149-2.884,4.011c-0.322,0.637-0.559,1.583-1.399,2.146
	c-0.155,0.104-0.217,0.05-0.296-0.175c-0.212-0.606-0.504-7.121-0.504-7.121l-3.304-0.632l1.679,11.472l-2.207,8.331
	C152.712,22.901,152.722,22.971,152.939,23.105 M102.506,23.288c0,0-1.133-3.404-1.473-5.006c-0.093-0.44-0.126-0.745-0.187-1.119
	C100.553,15.333,97.24,3.61,97.24,3.61l-3.058,0.835l5.622,19.592L102.506,23.288z M106.506,22.347l2.674-0.668L105.263,1.89
	l-3.141,0.685c0,0,0.349,1.216,0.684,2.461C103.74,8.516,106.506,22.347,106.506,22.347 M129.114,245.741l-0.187-10.137h-5.037
	v2.239h2.239v5.723c0,0.504-0.01,0.584-0.098,0.811c-0.065,0.167-0.145,0.337-0.275,0.461c-0.578,0.551-1.785,0.258-2.426,0
	c-3.043-1.226-3.628-5.096-3.358-8.787c0.188-2.582,1.049-6.073,2.985-7.443c1.034-0.731,2.493-0.752,3.757-0.039
	c0.563,0.318,1.987,1.439,2.213,1.251c0.122-0.101,0.059-0.936,0-1.493c-0.137-1.299-0.285-1.408-1.958-2.052
	c-2.566-0.985-5.282-0.389-7.09,1.865c-2.413,3.009-4.164,12.086-1.119,16.043c1.74,2.263,4.067,2.934,6.847,2.798
	c0.462-0.022,0.853-0.057,1.455-0.279C127.889,246.398,129.114,245.741,129.114,245.741 M0.746,137.462l21.084-2.714l-0.187-2.489
	l-20.897,1.989V137.462z M18.845,126.04v3.048c0,0,0.805,0.056,1.343,0c0.679-0.07,1.015-0.309,1.082-0.496
	c0.148-0.413-0.187-6.219-0.187-6.219l-19.357,0.181c-0.504,0.005-0.576,0-0.714-0.055c-0.103-0.04-0.183-0.061-0.323-0.066
	c-0.225-0.01-0.606,0.017-0.606,0.017L0,125.543l8.992-0.356c0.503-0.02,0.575,0.014,0.714,0.338
	c0.103,0.241,0.154,0.434,0.183,0.761c0.081,0.897,0,2.802,0,2.802h2.239v-3.917c0,0,4.649,0.153,5.349,0
	c0.466-0.103,0.68-0.265,0.872-0.187c0.124,0.05,0.251,0.19,0.35,0.312C18.83,125.461,18.845,125.536,18.845,126.04
	 M238.077,103.606c-0.205,1.034,0.692,3.019,1.213,3.656c1.233,1.509,3.329,1.853,4.944,1.212c2.437-0.966,3.25-3.708,2.333-6.249
	c-0.418-1.156-1.508-2.362-2.67-2.733c-2.172-0.693-4.556,0.531-5.353,2.546C238.339,102.556,238.157,103.205,238.077,103.606
	 M10.542,98.682c-1.018,2.238-1.185,4.529,0.466,6.156c2.056,2.025,5.803,0.997,6.997-1.306c1.345-2.595-0.022-6.456-3.34-6.902
	C13.437,96.464,11.164,97.315,10.542,98.682 M142.509,20.973c0.454,0.535,0.664,0.323,1.867,0.292
	c0.715-0.018,3.461,0.701,4.926,0.933c0.175,0.028,0.344,0.048,0.515,0.029c0.232-0.026,0.274-0.083,0.426-0.563l0.43-1.358
	l-5.354-1.236l2.807-17.426L145.16,1.12l-2.72,19.126C142.369,20.745,142.376,20.817,142.509,20.973 M138.32,20.52l1.989-19.96
	l-3.049-0.187l-1.494,19.186c-0.039,0.502-0.01,0.575,0.287,0.731c0.221,0.116,0.394,0.193,0.707,0.23
	C137.317,20.585,138.32,20.52,138.32,20.52 M126.875,2.238h5.97L133.032,0h-9.142v4.664l0.746,15.483h7.836v-2.425h-5.411V10.82
	h5.038V8.395c0,0-4.046-0.002-4.907-0.13c-0.521-0.078-0.218-0.627-0.201-2.78C127.002,4.06,126.875,2.238,126.875,2.238"/>
</svg>
