<?xml version="1.0" encoding="utf-8"?>
<!-- Generator: Adobe Illustrator 15.0.0, SVG Export Plug-In . SVG Version: 6.00 Build 0)  -->
<!DOCTYPE svg PUBLIC "-//W3C//DTD SVG 1.1//EN" "http://www.w3.org/Graphics/SVG/1.1/DTD/svg11.dtd">
<svg version="1.1"
	 id="svg3578" inkscape:version="0.91 r13725" sodipodi:docname="OKS logo (mv).svg" xmlns:dc="http://purl.org/dc/elements/1.1/" xmlns:cc="http://creativecommons.org/ns#" xmlns:rdf="http://www.w3.org/1999/02/22-rdf-syntax-ns#" xmlns:inkscape="http://www.inkscape.org/namespaces/inkscape" xmlns:svg="http://www.w3.org/2000/svg" xmlns:sodipodi="http://sodipodi.sourceforge.net/DTD/sodipodi-0.dtd"
	 xmlns="http://www.w3.org/2000/svg" xmlns:xlink="http://www.w3.org/1999/xlink" x="0px" y="0px" width="237px" height="236px"
	 viewBox="-122.862 718.445 237 236" style="enable-background:new -122.862 718.445 237 236;" xml:space="preserve">
<sodipodi:namedview  id="base" inkscape:window-y="-8" inkscape:window-x="1912" inkscape:window-height="972" inkscape:window-width="1280" inkscape:current-layer="layer1" inkscape:document-units="px" inkscape:pageshadow="2" inkscape:pageopacity="0.0" showgrid="false" pagecolor="#ffffff" inkscape:cy="520" inkscape:cx="375" inkscape:zoom="0.35" borderopacity="1.0" bordercolor="#666666" inkscape:window-maximized="1">
	</sodipodi:namedview>
<g id="layer1" inkscape:groupmode="layer" inkscape:label="Taso 1">
	<g id="g3346" transform="matrix(1.25,0,0,-1.25,551.22062,266.89859)">
		<path id="path3348" inkscape:connector-curvature="0" d="M-390.134-388.569l-17.252-23.627l18.19-24.169l-12.282,22.036
			l10.259,14.641l22.998-30.819l-20.975-5.858l39.53-3.732L-390.134-388.569z"/>
	</g>
	<g id="g3350" transform="matrix(1.25,0,0,-1.25,218.23474,246.75384)">
		<path id="path3352" inkscape:connector-curvature="0" d="M-222.799-398.692l-50.079-59.063l100.158,9.248l-53.637,3.051
			l23.158,30.731L-222.799-398.692z"/>
	</g>
	<g id="g3354" transform="matrix(1.25,0,0,-1.25,377.71587,207.91046)">
		<path id="path3356" inkscape:connector-curvature="0" d="M-302.939-418.209l-43.065-59.056h-8.784l52.097,68.837l64.754-81.252
			l-21.573,2.393l6.2,5.04L-302.939-418.209z"/>
	</g>
	<g id="g3358" transform="matrix(1.25,0,0,-1.25,279.00312,377.66509)">
		<path id="path3360" inkscape:connector-curvature="0" d="M-253.334-332.905l29.002,38.942l30.729-38.942l-30.159,19.473
			L-253.334-332.905z"/>
	</g>
	<g id="g3370" transform="matrix(1.25,0,0,-1.25,148.25299,539.57621)">
		<path id="path3372" inkscape:connector-curvature="0" d="M-187.63-251.541c0,1.157-0.219,2.229-0.649,3.23
			c-0.43,0.995-1.022,1.862-1.766,2.608c-0.746,0.745-1.62,1.338-2.615,1.767c-0.995,0.437-2.068,0.648-3.225,0.648h-3.243
			c-1.15,0-2.23-0.212-3.225-0.648c-0.995-0.43-1.876-1.022-2.634-1.767c-0.75-0.745-1.348-1.613-1.779-2.608
			c-0.438-1.002-0.648-2.073-0.648-3.23v-27.749c0-1.148,0.211-2.229,0.648-3.223c0.43-0.996,1.028-1.877,1.779-2.634
			c0.758-0.751,1.639-1.348,2.634-1.78c0.995-0.437,2.075-0.648,3.225-0.648h3.243c1.157,0,2.229,0.212,3.225,0.648
			c0.995,0.431,1.869,1.029,2.615,1.78c0.745,0.758,1.336,1.638,1.766,2.634c0.43,0.995,0.649,2.075,0.649,3.223V-251.541z
			 M-183.975-284.229c-0.655-1.536-1.567-2.877-2.716-4.034c-1.157-1.152-2.499-2.063-4.041-2.723
			c-1.535-0.655-3.179-0.99-4.932-0.99h-3.681c-1.754,0-3.404,0.334-4.952,0.99c-1.548,0.66-2.904,1.571-4.053,2.723
			c-1.157,1.157-2.062,2.498-2.724,4.034c-0.662,1.541-0.989,3.186-0.989,4.939v27.749c0,1.753,0.327,3.405,0.989,4.94
			c0.662,1.534,1.568,2.884,2.724,4.034c1.149,1.156,2.505,2.062,4.053,2.723c1.548,0.662,3.198,0.989,4.952,0.989h3.681
			c1.753,0,3.397-0.327,4.932-0.989c1.542-0.662,2.884-1.567,4.041-2.723c1.15-1.15,2.062-2.499,2.716-4.034
			c0.661-1.534,0.996-3.187,0.996-4.94v-27.749C-182.979-281.044-183.314-282.688-183.975-284.229"/>
	</g>
	<g id="g3374" transform="matrix(1.25,0,0,-1.25,293.09249,649.46146)">
		<path id="path3376" inkscape:connector-curvature="0" d="M-260.414-196.321c-0.661-1.536-1.573-2.877-2.723-4.034
			c-1.156-1.152-2.499-2.062-4.034-2.723c-1.541-0.655-3.186-0.99-4.939-0.99h-3.673c-1.756,0-3.412,0.334-4.96,0.99
			c-1.548,0.661-2.903,1.571-4.053,2.723c-1.156,1.157-2.062,2.498-2.723,4.034c-0.662,1.541-0.989,3.186-0.989,4.939v39.717h4.651
			v-39.717c0-1.148,0.212-2.23,0.649-3.223c0.43-0.996,1.028-1.877,1.781-2.634c0.755-0.752,1.636-1.348,2.632-1.78
			c0.995-0.437,2.075-0.648,3.224-0.648h3.244c1.157,0,2.229,0.212,3.224,0.648c1.003,0.431,1.87,1.028,2.614,1.78
			c0.745,0.758,1.336,1.638,1.766,2.634c0.43,0.994,0.649,2.075,0.649,3.223v39.717h4.65v-39.717
			C-259.424-193.135-259.759-194.78-260.414-196.321"/>
	</g>
	<g id="g3378" transform="matrix(1.25,0,0,-1.25,331.19487,673.08684)">
		<path id="path3380" inkscape:connector-curvature="0" d="M-279.564-184.448v51.683h4.651v-47.249h19.784v-4.434H-279.564z"/>
	</g>
	<g id="g3382" transform="matrix(1.25,0,0,-1.25,530.07062,649.46146)">
		<path id="path3384" inkscape:connector-curvature="0" d="M-379.505-196.321c-0.662-1.536-1.568-2.877-2.724-4.034
			c-1.15-1.152-2.498-2.062-4.034-2.723c-1.535-0.655-3.186-0.99-4.939-0.99h-3.674c-1.754,0-3.404,0.334-4.952,0.99
			c-1.555,0.661-2.904,1.571-4.061,2.723c-1.15,1.157-2.055,2.498-2.716,4.034c-0.663,1.541-0.991,3.186-0.991,4.939v39.717h4.646
			v-39.717c0-1.148,0.218-2.23,0.649-3.223c0.436-0.996,1.028-1.877,1.786-2.634c0.758-0.752,1.631-1.348,2.634-1.78
			c0.995-0.437,2.067-0.648,3.223-0.648h3.245c1.149,0,2.229,0.212,3.224,0.648c0.995,0.431,1.87,1.028,2.615,1.78
			c0.745,0.758,1.329,1.638,1.766,2.634c0.429,0.994,0.649,2.075,0.649,3.223v39.717h4.643v-39.717
			C-378.517-193.135-378.844-194.78-379.505-196.321"/>
	</g>
	<g id="g3386" transform="matrix(1.25,0,0,-1.25,660.24887,673.08684)">
		<path id="path3388" inkscape:connector-curvature="0" d="M-444.922-184.448l-21.55,37.629l-0.438,2.234v-39.863h-4.65v51.683
			h2.415l21.558-37.66l0.467-2.197v39.857h4.646v-51.683H-444.922z"/>
	</g>
	<g id="g3390" transform="matrix(1.25,0,0,-1.25,101.29499,808.59834)">
		<path id="path3392" inkscape:connector-curvature="0" d="M-164.031-116.345l-8.816,11.759l8.816,11.762h2.613l-8.995-11.762
			l8.995-11.759H-164.031z M-175.46-92.824h2.105v-23.521h-2.105V-92.824z"/>
	</g>
	<path id="path3394" inkscape:connector-curvature="0" d="M-96.303,924.628h2.639v29.401h-2.639V924.628z"/>
	<path id="path3396" inkscape:connector-curvature="0" d="M-86.973,924.628h2.63v29.401h-2.63V924.628z"/>
	<g id="g3398" transform="matrix(1.25,0,0,-1.25,208.67787,748.99383)">
		<path id="path3400" inkscape:connector-curvature="0" d="M-217.994-146.302c0,0.53-0.098,1.014-0.295,1.467
			c-0.197,0.459-0.465,0.855-0.806,1.2c-0.348,0.347-0.741,0.616-1.191,0.815c-0.458,0.198-0.939,0.296-1.466,0.296h-5.202v-10.455
			h5.202c0.527,0,1.008,0.098,1.466,0.297c0.451,0.198,0.843,0.465,1.191,0.805c0.341,0.341,0.609,0.738,0.806,1.192
			c0.196,0.452,0.295,0.941,0.295,1.466V-146.302z M-216.337-151.467c-0.302-0.696-0.708-1.313-1.235-1.835
			c-0.52-0.523-1.136-0.939-1.835-1.241c-0.699-0.295-1.448-0.45-2.246-0.45h-5.3v-9.035h-2.111v23.521h7.411
			c0.798,0,1.547-0.155,2.246-0.45c0.699-0.302,1.315-0.719,1.835-1.241c0.527-0.522,0.934-1.142,1.235-1.845
			c0.301-0.702,0.448-1.455,0.448-2.258v-2.916C-215.89-150.02-216.037-150.766-216.337-151.467"/>
	</g>
	<g id="g3402" transform="matrix(1.25,0,0,-1.25,229.25399,808.59834)">
		<path id="path3404" inkscape:connector-curvature="0" d="M-228.333-116.345v23.521h13.167v-2.016h-11.063v-8.745h8.959v-2.016
			h-8.959v-8.728h11.063v-2.016H-228.333z"/>
	</g>
	<path id="path3406" inkscape:connector-curvature="0" d="M-34.68,924.628h2.63v29.401h-2.63V924.628z"/>
	<g id="g3408" transform="matrix(1.25,0,0,-1.25,310.95749,808.59834)">
		<path id="path3410" inkscape:connector-curvature="0" d="M-269.395-116.345v23.521h2.104v-21.505h8.967v-2.016H-269.395z"/>
	</g>
	<g id="g3412" transform="matrix(1.25,0,0,-1.25,373.89512,770.77371)">
		<path id="path3414" inkscape:connector-curvature="0" d="M-301.021-135.356v-11.249h-2.104v11.221l-6.059,12.301h2.271l4.815-9.78
			l4.814,9.78h2.268L-301.021-135.356z"/>
	</g>
	<g id="g3416" transform="matrix(1.25,0,0,-1.25,448.46549,790.29271)">
		<path id="path3418" inkscape:connector-curvature="0" d="M-338.498-125.545c0-0.795-0.16-1.545-0.482-2.249
			c-0.318-0.697-0.745-1.313-1.291-1.837c-0.537-0.522-1.161-0.938-1.872-1.24c-0.717-0.295-1.466-0.451-2.263-0.451h-1.682
			c-0.792,0-1.546,0.155-2.256,0.451c-0.718,0.302-1.342,0.718-1.879,1.24c-0.538,0.523-0.973,1.14-1.29,1.837
			c-0.324,0.704-0.482,1.454-0.482,2.249v0.936l2.103,0.341v-1.277c0-0.523,0.109-1.015,0.322-1.467
			c0.214-0.453,0.501-0.855,0.859-1.197c0.358-0.345,0.771-0.62,1.245-0.811c0.473-0.197,0.974-0.296,1.495-0.296h1.468
			c0.524,0,1.017,0.099,1.485,0.296c0.468,0.191,0.886,0.466,1.244,0.811c0.359,0.342,0.645,0.744,0.854,1.197
			c0.213,0.452,0.32,0.945,0.32,1.467v0.702c0,0.814-0.155,1.482-0.474,2.023c-0.312,0.535-0.734,0.991-1.254,1.369
			c-0.528,0.377-1.113,0.694-1.771,0.955c-0.661,0.269-1.339,0.53-2.032,0.791c-0.701,0.261-1.373,0.552-2.033,0.868
			c-0.659,0.317-1.252,0.716-1.771,1.192c-0.523,0.475-0.943,1.053-1.261,1.745c-0.312,0.685-0.467,1.534-0.467,2.538v0.449
			c0,0.795,0.147,1.545,0.447,2.241c0.298,0.704,0.707,1.313,1.228,1.835c0.527,0.53,1.136,0.939,1.843,1.242
			c0.698,0.303,1.447,0.45,2.238,0.45h1.504c0.797,0,1.538-0.147,2.238-0.45c0.693-0.303,1.306-0.712,1.827-1.242
			c0.526-0.522,0.933-1.131,1.234-1.835c0.3-0.696,0.448-1.446,0.448-2.241v-0.611l-2.105-0.343v0.954
			c0,0.522-0.098,1.013-0.295,1.467c-0.196,0.453-0.462,0.85-0.796,1.188c-0.343,0.336-0.734,0.604-1.19,0.802
			c-0.451,0.198-0.934,0.297-1.459,0.297h-1.307c-0.52,0-1.009-0.098-1.46-0.297c-0.451-0.198-0.85-0.466-1.191-0.802
			c-0.34-0.337-0.608-0.734-0.806-1.188c-0.197-0.454-0.295-0.945-0.295-1.467v-0.449c0-0.751,0.156-1.388,0.475-1.899
			c0.311-0.517,0.734-0.956,1.254-1.323c0.521-0.366,1.112-0.679,1.772-0.952c0.659-0.267,1.339-0.541,2.032-0.82
			c0.699-0.278,1.373-0.579,2.032-0.917c0.659-0.33,1.252-0.744,1.771-1.23c0.52-0.484,0.943-1.08,1.254-1.777
			c0.318-0.704,0.475-1.556,0.475-2.563V-125.545z"/>
	</g>
	<g id="g3420" transform="matrix(1.25,0,0,-1.25,463.66437,808.59834)">
		<path id="path3422" inkscape:connector-curvature="0" d="M-346.137-116.345v23.521h13.175v-2.016h-11.064v-8.745h8.96v-2.016
			h-8.96v-8.728h11.064v-2.016H-346.137z"/>
	</g>
	<g id="g3424" transform="matrix(1.25,0,0,-1.25,563.06262,797.84646)">
		<path id="path3426" inkscape:connector-curvature="0" d="M-396.085-121.752c-0.302-0.696-0.707-1.313-1.234-1.837
			c-0.52-0.522-1.126-0.938-1.826-1.24c-0.693-0.295-1.438-0.451-2.238-0.451h-1.665c-0.79,0-1.54,0.155-2.243,0.451
			c-0.701,0.302-1.311,0.718-1.837,1.24c-0.52,0.523-0.934,1.141-1.228,1.837c-0.3,0.704-0.453,1.454-0.453,2.249v18.077h2.109
			v-18.077c0-0.523,0.098-1.015,0.295-1.467c0.19-0.453,0.465-0.855,0.805-1.197c0.341-0.345,0.74-0.62,1.191-0.811
			c0.451-0.197,0.94-0.296,1.46-0.296h1.468c0.527,0,1.009,0.099,1.467,0.296c0.451,0.191,0.839,0.466,1.182,0.811
			c0.335,0.342,0.601,0.744,0.797,1.197c0.197,0.452,0.295,0.945,0.295,1.467v18.077h2.104v-18.077
			C-395.637-120.298-395.784-121.048-396.085-121.752"/>
	</g>
	<g id="g3428" transform="matrix(1.25,0,0,-1.25,617.52187,748.99383)">
		<path id="path3430" inkscape:connector-curvature="0" d="M-423.452-146.302c0,0.53-0.098,1.014-0.296,1.467
			c-0.196,0.459-0.461,0.855-0.797,1.2c-0.336,0.347-0.731,0.616-1.182,0.815c-0.452,0.198-0.94,0.296-1.467,0.296h-5.219v-9.448
			h5.219c0.527,0,1.015,0.095,1.467,0.29c0.45,0.198,0.846,0.468,1.182,0.817c0.335,0.343,0.601,0.745,0.797,1.198
			c0.197,0.452,0.296,0.939,0.296,1.466V-146.302z M-423.174-164.029l-6.347,10.034h-2.89v-10.034h-2.104v23.521h7.42
			c0.8,0,1.545-0.155,2.239-0.45c0.7-0.302,1.306-0.719,1.83-1.241c0.523-0.522,0.929-1.142,1.23-1.845
			c0.301-0.702,0.448-1.455,0.448-2.258v-1.9c0-0.802-0.146-1.547-0.448-2.258c-0.302-0.702-0.707-1.32-1.23-1.845
			c-0.524-0.523-1.13-0.938-1.83-1.238c-0.693-0.298-1.439-0.453-2.239-0.453l6.354-10.034H-423.174z"/>
	</g>
	<g id="g3432" transform="matrix(1.25,0,0,-1.25,646.65999,783.39934)">
		<path id="path3434" inkscape:connector-curvature="0" d="M-438.097-129.008h6.29l-3.087,10.842l-0.063,0.866l-0.071-0.866
			L-438.097-129.008z M-431.252-131.026h-7.411l-1.539-5.478h-2.184l6.857,23.521h1.11l6.883-23.521h-2.167L-431.252-131.026z"/>
	</g>
</g>
</svg>
